<svg xmlns="http://www.w3.org/2000/svg" width="724" height="240" fill="none"><g clip-path="url(#a)"><mask id="b" width="724" height="240" x="0" y="0" maskUnits="userSpaceOnUse" style="mask-type:luminance"><path fill="#fff" d="M723.9 0H.1v240h723.8V0Z"/></mask><g mask="url(#b)"><path fill="#FFC800" d="M435.38 207.842c-1.215 0-2.412-.137-3.563-.411-4.66-1.106-10.836-2.568-17.139-4.121-2.202-.539-4.331-1.525-6.332-2.914l-1.105-.768c-.941-.657-1.891-1.315-2.832-1.982-2.174 3.28-5.929 6.094-11.511 6.359l-1.334.063c-1.051.055-2.037.101-2.978.174-.96.082-1.919.174-2.869.265h-.137c-1.389.146-2.823.292-4.285.393-2.43.173-5.637.393-8.898.493-.274 0-.558.009-.841.009-2.01 0-3.983-.219-5.856-.667-.438 0-1.023.055-1.599.101l-.758.064c-2.713.21-5.134.31-7.418.31-3.271 0-6.286-.2-9.218-.621-2.001-.283-4.112-.484-6.35-.694-.804-.073-1.58-.146-2.357-.219l-.11-.009a15.663 15.663 0 0 1-4.029-.923 15.273 15.273 0 0 1-4.622 1.261c-2.969.959-5.582 1.078-7.3 1.078-.63 0-1.261-.019-1.891-.037l-.521-.018c-1.215-.037-2.439-.073-3.672-.119l-.567-.018c-3.069-.11-5.956-.21-8.816-.21-.621 0-1.252 0-1.882.018l-1.562.027c-4.34.073-8.442.137-12.343.576-.913.1-1.854.146-2.868.146-.941 0-1.818-.046-2.458-.073h-.192c-.658-.046-1.315-.073-1.973-.101-2.558-.109-5.135-.219-7.884-.52-2.257-.247-4.23-.74-5.811-1.133l-.219-.055c-.43-.11-.859-.21-1.288-.301-.055-.01-.11-.028-.165-.037a15.83 15.83 0 0 1-4.056 1.115l-.905.127c-1.717.256-3.846.567-6.148.64-2.083.064-3.819.1-5.472.1-4.176 0-7.876-.21-11.311-.63a175.44 175.44 0 0 0-5.353-.594c-4.185-.393-7.848-2.412-10.342-5.646-1.791 2.403-4.394 4.258-7.619 5.244-4.011 1.234-8.241 1.855-12.562 1.855h-.119c-3.892 0-8.085-.037-12.324-.302-2.86-.173-5.153-.904-6.816-1.443l-.1-.037a18.68 18.68 0 0 0-.749-.228c-3.097-.895-5.82-2.887-7.702-5.619-.082-.109-1.992-2.731-2.037-2.795-.457.402-.914.795-1.362 1.178a20.606 20.606 0 0 1-4.641 3.006c-1.123.53-2.265 1.06-3.398 1.571-1.754.804-3.408 1.554-4.961 2.348-2.869 1.462-5.555 2.102-7.51 2.568-.365.091-.648.155-.932.228-3.243.822-6.221.932-8.706.932-.439 0-2.065-.018-2.43-.018-.21 0-1.635.018-1.846.018-.466 0-.922-.009-1.379-.037-.192-.009-.384-.018-.576-.018-1.571 0-3.471.338-5.289.694a17.493 17.493 0 0 1-3.445.338c-1.315 0-2.622-.146-3.873-.447a1616.244 1616.244 0 0 1-16.765-4.029c-2.274-.567-4.476-1.581-6.55-3.015-2.668-1.855-5.765-4.02-8.77-6.258-1.005-.749-2.001-1.59-2.96-2.503-.101-.092-70.082-66.683-70.082-66.683-3.124-2.869-5.81-6.304-7.94-10.15-1.854-3.353-3.526-6.688-5.152-9.922l-1.014-2.028c-1.142-2.275-1.918-4.595-2.311-6.898-.31-1.873-.594-3.727-.877-5.582-.265-1.772-.53-3.544-.832-5.317-.776-4.559-.566-8.57-.283-12.297.055-.74.018-1.927-.027-3.07a97.107 97.107 0 0 1-.073-3.252c0-3.07.018-6.715.118-10.396.092-3.353 1.097-5.866 1.581-7.072l.082-.2c1.243-3.198 2.421-6.36 3.052-9.283.685-3.16 1.973-5.463 2.74-6.833.092-.165.156-.274.21-.384.667-1.252 1.343-2.21 1.745-2.786l.128-.174c2.467-3.928 5.491-7.108 9.255-9.712 1.48-1.023 3.015-2.466 4.705-4.412a25.508 25.508 0 0 1 6.843-5.518c5.335-2.933 11.146-5.116 18.29-6.87l.575-.137.676-.165C55.427.548 60.214.512 63.722.484 67.824.448 72.237.33 78.02.082c.448-.018.886-.027 1.325-.027 3.526 0 6.54.575 8.962 1.041.813.156 1.58.302 2.266.402.667.092 1.324.174 1.991.265l.119.018c1.717.22 3.49.439 5.463.814 1.992.383 3.81.85 5.418 1.27.676.173 1.297.337 1.918.484 5.637 1.37 9.62 4.34 11.996 6.12.868.65 1.836 1.316 2.85 2.02 1.535 1.06 3.116 2.156 4.787 3.453.466.366.923.731 1.38 1.106 1.772-6.322 7.08-10.954 13.996-11.786 1.297-.155 2.576-.32 3.865-.484 2.411-.31 4.878-.63 7.436-.886a38.563 38.563 0 0 1 3.947-.183c1.407 0 2.604.055 3.682.11 4.549.22 8.386.43 12.306.758 2.101.174 3.864.576 5.152.868l.174.037c.283.063.566.127.859.182 4.723.85 8.706 3.508 11.502 7.684.457.685.913 1.36 1.379 2.037 1.69-4.175 5.062-7.4 9.831-9.255l.118-.046c4.066-1.59 7.985-2.357 12.005-2.357 1.617 0 3.252.128 4.851.393.311-.055 1.444-.283 1.444-.283a40.005 40.005 0 0 1 7.61-.73c4.604 0 9.282.767 14.279 2.347.32.1.64.21.95.329a17.37 17.37 0 0 1 3.618-1.069 63.882 63.882 0 0 1 11.475-1.032h.639c.877.009 1.727.018 2.567.018 4.24 0 8.031-.119 11.576-.365a36.67 36.67 0 0 1 2.494-.083c1.708 0 3.27.11 4.531.201h.192c.594.055 1.179.1 1.782.12a47.01 47.01 0 0 0 1.598.027c1.106 0 1.992-.046 2.705-.147a29.085 29.085 0 0 1 4.147-.283c1.837 0 3.444.155 4.751.274l.137.018c.466.046.932.092 1.407.11 1.005.055 2.01.11 3.015.174h.155c2.266.146 4.413.274 6.468.31.256-.036.594-.091.868-.137a52.449 52.449 0 0 1 2.357-.338c.558-.064 1.489-.173 2.659-.173 1.343 0 2.658.146 3.928.43 1.005.227 2.019.474 3.033.72l.146.037c.768.192 1.535.384 2.312.549a17.406 17.406 0 0 1 4.961 1.927c1.863-.923 3.955-1.535 6.267-1.827l.11-.018c1.717-.22 3.435-.448 5.152-.685l.183-.028c1.946-.265 3.873-.53 5.801-.767 1.069-.137 2.531-.32 4.267-.32.922 0 1.836.055 2.722.164.768.092 1.553.137 2.421.137 1.444 0 3.07-.127 4.988-.392.676-.092 1.709-.22 2.951-.22 1.425 0 2.832.165 4.175.485 2.083.493 4.011.995 5.884 1.534 8.067 2.32 12.808 8.734 12.699 17.14-.019 1.708-.064 3.407-.101 5.115h-5.18l5.18.12c-.055 2.63-.109 5.106-.109 7.573 0 1.17 0 2.339-.01 3.499v.356c-.027 4.45-.045 8.652.247 12.653.21 2.75.42 6.423.247 10.415l-.155 3.746c.191 2.394.228 4.842.109 7.473l-.256 5.792c.457.037.877.083 1.252.128l.703.073c.521.046 1.015.11 1.471.183.009-.128 1.864-23.032 1.873-23.16.192-2.585.786-5.116 1.827-7.728l.073-.192c1.133-2.86 2.202-5.564 2.641-7.82.785-4.12 2.43-7.739 4.887-10.772.055-.091.128-.22.201-.32.357-.575.695-1.123 1.051-1.653 2.156-3.198 4.833-5.893 7.976-7.994 1.507-1.005 3.042-2.44 4.833-4.495 2.749-3.152 5.783-4.988 7.829-6.103 6.55-3.554 13.156-5.299 18.994-6.843l.191-.045c1.197-.32 2.394-.63 3.582-.969 1.708-.475 3.334-.73 4.979-.776 1.845-.055 3.7-.1 5.564-.137 3.398-.082 6.906-.165 10.287-.31a56.447 56.447 0 0 1 2.146-.046c5.071 0 9.712.749 13.969 1.553.64.118 1.517.228 2.449.338 1.37.164 2.923.347 4.632.676 1.863.356 3.59.822 4.979 1.197l.173.045c.658.174 1.325.356 1.983.512 5.034 1.16 8.651 3.636 10.954 5.299 2.877-3.07 6.852-4.87 11.41-5.126l2.631-.146c3.865-.22 7.848-.447 11.886-.566.466-.01.923-.018 1.38-.018 1.535 0 2.96.063 4.221.127 1.014.046 1.973.092 2.777.092 1.535 0 3.225-.119 5.025-.238l.612-.036c.621-.046 1.27-.064 1.909-.064 3.481 0 6.468.64 8.661 1.096l.128.027c.402.083.804.174 1.206.247 6.632 1.27 11.767 5.939 13.74 12.489l.21.703c.402 1.343.795 2.64 1.188 3.91.027-.054 3.828-7.51 3.91-7.655 2.668-5.39 7.656-8.98 13.686-9.867.639-.091.895-.174.895-.174 3.508-1.197 6.614-1.334 8.643-1.334.657 0 1.324.019 1.991.037 2.641.091 5.272.164 7.903.238h.329c4.266.137 8.505.255 12.744.42 2.047.082 3.974.301 5.518.475l.119.018c.594.064 1.188.137 1.791.192.722.064 1.452.183 2.174.356 1.672-.42 3.07-.539 3.846-.603l.22-.018c2.037-.247 4.248-.466 6.669-.502 1.023-.019 2.037-.019 3.06-.019l5.071.019c1.123 0 2.256 0 3.38-.037.667-.018 1.581-.1 2.54-.183 1.197-.11 2.649-.246 4.202-.301a45.241 45.241 0 0 1 1.581-.028c2.138 0 4.193.165 6.121.485a5.9 5.9 0 0 0 .886.064c.694 0 1.544-.074 2.668-.238a28.968 28.968 0 0 1 4.248-.301c1.772 0 3.325.146 4.577.255l.192.019c.429.036.859.082 1.288.1 1.361.064 2.713.146 4.065.22 2.138.127 4.148.237 6.112.3.073-.008.229-.036.475-.09a22.075 22.075 0 0 1 4.779-.521c1.982 0 3.974.256 6.075.785.365.092.722.183 1.078.265a73.25 73.25 0 0 1 3.691.969c4.54 1.352 9.995 5.216 11.666 11.977l.247 1.005c.539 2.138 1.215 4.805 1.498 7.848.284 2.969-.064 5.5-.283 7.171l-.018.165c-.037.256-.073.511-.101.758l-1.315 13.722c-.028.484-.064.932-.11 1.38-.32 2.585-1.05 4.896-2.183 6.906.146.969.228 1.983.237 3.015.046 4.002.42 8.323 1.179 13.622.52 3.654.374 7.382-.448 11.31 2.522 2.787 3.992 6.46 4.212 10.643l.1 1.81c.146 2.512.283 5.079.265 7.856-.018 2.65.219 5.546.731 8.871a20.624 20.624 0 0 1-.237 7.446 119.158 119.158 0 0 1-1.005 4.111l-.338 1.343c-.96 3.837-2.988 7.135-5.866 9.529-.055.045-.1.091-.155.128-.11.1-.566.511-.694.612-.119.109-.238.219-.357.32-.118.109-.246.219-.365.319-.119.11-2.047 1.828-2.174 1.937-.119.11-.238.219-.366.32-.119.11-.603.539-.722.649-.118.109-.237.219-.365.319-.119.11-.238.22-.365.32-.119.11-.594.53-.713.64a571.71 571.71 0 0 1-2.54 2.256c-.119.11-.247.219-.365.329-.119.11-.238.219-.366.32-.118.109-.594.53-.721.639-.119.11-.247.22-.366.329-.119.11-1.325 1.179-1.443 1.288-.119.11-.247.22-.366.329-.119.11-.603.539-.722.649-.118.11-.237.219-.365.32-.119.109-.238.21-.356.31-.119.11-.247.22-.366.329-.118.11-3.133 2.796-3.252 2.896-.119.11-.238.219-.366.32a88.956 88.956 0 0 1-1.452 1.288c-.119.11-.238.219-.366.32-.118.11-2.411 2.147-2.53 2.256a5.86 5.86 0 0 1-.366.32c-.118.11-.246.219-.365.329-.119.11-.238.219-.366.32-.118.11-.237.21-.356.32-.119.109-.237.219-.365.319-.119.11-.603.539-.722.64-.119.11-.247.219-.365.329-.119.109-.238.219-.366.32-.119.109-.246.219-.365.328-.119.11-.96.859-1.087.969-.119.109-.238.219-.366.329-.119.109-.237.219-.365.319-.119.11-2.047 1.828-2.166 1.928-.118.11-.246.219-.365.329-.119.11-.238.21-.356.32-.119.109-.238.219-.366.32-.118.109-1.324 1.178-1.443 1.288-.119.109-.247.219-.375.329-.118.109-.237.219-.365.319-.119.11-2.412 2.156-2.531 2.257-.119.11-.237.219-.365.32-.119.109-.594.53-.713.639-.119.11-.968.859-1.087.969-.119.109-.238.219-.365.319-.119.11-.247.22-.366.329-.119.11-.594.53-.713.64-.118.109-.246.219-.374.329-.119.109-.238.219-.356.319-.119.11-.247.22-.366.329-.119.11-.237.21-.356.32-.119.11-.238.219-.366.32-.118.109-.237.219-.365.329-.119.109-.959.859-1.078.959-.119.11-.247.219-.365.329-.119.11-.96.859-1.078.959-.119.11-.238.219-.366.32-.119.11-.237.219-.356.32-.119.109-.238.219-.366.329-.118.109-.246.219-.365.328a5.86 5.86 0 0 1-.366.32c-.118.11-.237.219-.356.32-.119.11-.247.219-.365.329-.119.11-.96.859-1.087.968a5.86 5.86 0 0 1-.366.32c-.119.11-.237.219-.365.329-.119.11-.603.539-.722.639-.119.11-.238.22-.365.32-.119.11-.247.219-.366.329a287.175 287.175 0 0 1-2.174 1.928c-.119.109-.238.219-.366.32-.118.109-.237.219-.365.319-.119.11-.238.21-.356.311-.119.11-.238.219-.357.32-.119.109-.246.228-.374.329-.119.109-.96.858-1.078.959-.119.109-.247.219-.366.329-.119.109-.237.219-.356.319-.119.11-.594.53-.713.64-.128.11-.246.228-.374.329-.11.109-.96.859-1.078.959-.119.11-.247.219-.366.329-.119.11-.237.21-.356.32-.119.109-.238.219-.365.32-.119.109-.238.219-.366.319-.119.11-.247.22-.365.329-.119.11-.594.53-.713.64-.119.109-.237.219-.365.319-.119.11-.238.22-.357.32-.118.11-.603.539-.721.64-.119.109-.247.219-.366.329-.119.109-.237.21-.356.31-.119.11-.247.22-.375.329-.118.11-.228.21-.347.311-.128.119-.256.228-.384.338-.109.1-.228.21-.347.301-.119.11-.246.22-.365.329-.119.11-.238.219-.366.32-.118.11-.246.219-.365.329-.119.109-.238.219-.356.32-.119.109-.238.21-.357.319-.118.11-.237.22-.365.32-.119.11-.603.548-.731.649-.119.109-.237.219-.365.319-.119.11-.238.22-.366.32-.119.11-.959.859-1.078.96-.119.109-.247.219-.365.328-.119.11-.594.53-.722.64-.119.11-.238.219-.365.32-.119.109-.238.219-.366.319-.119.11-.237.22-.365.32-.119.11-.238.219-.366.32-.119.11-.246.219-.365.329-.11.1-.475.429-.53.475-2.293 2.193-5.226 3.563-8.487 3.974l-.585.146c-.557.146-1.252.32-2.074.475-1.151.22-2.713.475-4.577.475h-.521c-3.106-.073-6.24-.182-9.364-.283l-2.074-.064c-.356.028-.722.046-1.078.046h-6.852c-.932 0-1.882.036-2.814.082l-3.581.192-.429.027c-1.855.101-3.673.201-5.491.284-.813.036-1.626.054-2.394.054-.712 0-1.425-.018-2.137-.054l-1.901-.092c-2.366-.1-5.052-.219-7.802-.521-2.201-.237-4.175-.694-5.755-1.059l-.083-.019c-.52-.118-1.05-.237-1.571-.347-6.56-1.324-11.201-6.779-11.548-13.557a98.98 98.98 0 0 0-.182-2.878c0-.064-.01-.128-.019-.192-.036.055-8.35 11.063-8.432 11.173-2.074 2.823-4.915 4.787-8.451 5.829a36.405 36.405 0 0 1-10.424 1.498c-1.087 0-2.202-.046-3.325-.137l-.905.055c-1.388.091-2.841.183-4.294.247a80.562 80.562 0 0 1-3.252.073c-4.477 0-8.542-.439-12.434-1.334-5.326-1.224-9.492-4.851-11.42-9.949a1302.883 1302.883 0 0 0-5.089-13.247 57.746 57.746 0 0 1-2.576 3.773c-1.763 2.384-3.691 4.202-5.244 5.673l-.594.567a114.795 114.795 0 0 1-5.819 5.161c-1.919 1.608-3.865 2.622-5.162 3.244-1.051.502-2.111.986-3.179 1.471-1.435.648-2.787 1.26-3.947 1.882-3.517 1.891-6.916 2.686-9.401 3.261-2.649.612-5.372.905-8.396.905-.457 0-.923 0-1.379-.019h-1.17c-.383.009-.767.019-1.151.019-.603 0-1.215-.01-1.818-.037a16.497 16.497 0 0 0-.667-.018c-1.48 0-3.17.21-5.481.694a17.08 17.08 0 0 1-3.49.365"/><path fill="#145000" d="M718.547 114.299c-.558-3.59-.813-6.77-.786-9.702.018-2.622-.119-5.116-.256-7.528l-.1-1.827c-.229-4.376-2.211-7.373-4.833-9.118.977-3.344 1.79-7.555 1.105-12.388-.785-5.518-1.178-10.059-1.224-14.289-.018-1.553-.228-2.923-.585-4.138 1.371-1.681 2.248-3.856 2.568-6.46.045-.365.073-.74.091-1.141l1.334-13.85c.036-.375.091-.75.137-1.115.21-1.526.493-3.618.265-5.993-.256-2.65-.85-4.997-1.371-7.08l-.256-1.024c-1.141-4.64-4.942-7.308-8.112-8.259a67.939 67.939 0 0 0-3.371-.886c-.393-.091-.786-.192-1.188-.292-1.681-.43-3.252-.63-4.805-.63-1.234 0-2.467.137-3.664.402-.84.182-1.288.21-1.535.21-2.101-.064-4.221-.183-6.459-.31-1.334-.074-2.677-.156-4.01-.22a34.847 34.847 0 0 1-1.709-.137c-1.206-.11-2.567-.238-4.093-.238-1.224 0-2.366.082-3.49.247-1.379.2-2.457.292-3.417.292-.639 0-1.205-.045-1.735-.128a32.22 32.22 0 0 0-5.272-.41c-.466 0-.932 0-1.398.027-1.397.045-2.713.164-3.882.274-1.06.1-2.074.192-2.924.21-1.16.027-2.329.036-3.499.036-.831 0-4.211-.009-5.07-.009-.996 0-1.983 0-2.979.019-2.21.036-4.293.246-6.212.475l-.311.027c-.931.082-2.503.22-4.257.831a11.446 11.446 0 0 0-2.686-.584 75.034 75.034 0 0 1-2.01-.22c-1.544-.173-3.289-.374-5.134-.447-4.23-.165-8.46-.283-12.699-.411l-8.25-.247c-.612-.018-1.224-.037-1.827-.037-1.663 0-4.193.11-6.971 1.06-.447.156-1.059.283-1.809.393-4.449.658-7.911 3.198-9.83 7.099-.082.146-.155.292-.228.438-.082.146-.155.293-.229.439-.082.146-.155.292-.228.438-.082.146-.155.293-.228.439-.073.146-.156.292-.229.438-.082.146-.155.293-.228.439-.073.146-.155.292-.229.438-.082.146-.155.293-.228.439-.073.146-.155.292-.228.438-.083.146-.156.293-.229.439-.073.146-.155.292-.228.438-.073.147-.155.293-.229.439-.073.146-.155.292-.219.438-.082.147-.155.293-.228.439-.082.146-.156.292-.229.438-.073.147-.155.293-.228.439-.082.146-.155.292-.228.439-.074.146-.156.292-.22.438-.082.146-.155.292-.228.439-.073.146-.155.292-.228.438a9.204 9.204 0 0 0-.229.439c-.073.146-.155.292-.219.438-.082.146-.155.293-.229.439-.082.146-.155.292-.228.438-.073.146-.155.293-.228.439-.083.146-.156.292-.229.438-.082.146-.155.293-.228.439-.073.146-.155.292-.229.438-.073.146-.155.293-.228.439-.082.146-.155.292-.228.438-.073.146-.156.293-.229.439-.082.146-.155.292-.228.438-.073.146-.155.293-.229.439-.082.146-.155.292-.228.438-.082.147-.155.293-.228.439a9.207 9.207 0 0 0-.229.438c-.073.147-.155.293-.219.439-.082.146-.155.292-.228.438-.073.147-.156.293-.229.439-.073.146-.155.292-.228.439-.082.146-.155.292-.229.438-.073.146-.155.292-.228.439-.082.146-.155.292-.228.438-.073.146-.156.292-.229.439-.082.146-.155.292-.228.438v.01c-.311-2.54-.777-5.217-1.727-7.995-.987-2.914-1.873-5.856-2.814-8.98l-.21-.704c-1.407-4.668-5.052-7.994-9.748-8.898a79.807 79.807 0 0 1-1.434-.292c-2.074-.439-4.65-.987-7.583-.987-.512 0-1.032.018-1.553.055l-.594.036c-1.882.128-3.663.247-5.39.256-.923 0-1.946-.046-3.024-.1a77.792 77.792 0 0 0-3.983-.12c-.411 0-.823 0-1.234.02-3.965.109-7.92.337-11.739.556l-2.631.147c-4.806.265-7.483 2.686-8.881 4.668a10.955 10.955 0 0 0-1.379 2.677c-.302-.21-.603-.43-.904-.649-1.042-.73-2.074-1.452-3.098-2.202-2.064-1.507-5.18-3.782-9.565-4.796a72.71 72.71 0 0 1-2.329-.603c-1.371-.365-2.933-.786-4.605-1.105-1.526-.293-2.987-.466-4.276-.622-1.023-.118-1.991-.237-2.795-.392-4.011-.759-8.36-1.462-13.01-1.462-.639 0-1.279.009-1.927.036-3.426.147-6.962.229-10.388.311l-5.536.137a15.218 15.218 0 0 0-3.728.594c-1.279.356-2.567.694-3.855 1.041-5.555 1.471-11.849 3.134-17.842 6.386-1.837.996-4.212 2.458-6.396 4.952-2.101 2.403-3.955 4.12-5.856 5.39-2.576 1.727-4.778 3.938-6.559 6.587-.32.466-.612.95-.914 1.434-.155.247-.356.576-.447.713-2.001 2.403-3.335 5.317-3.984 8.68-.52 2.73-1.681 5.654-2.905 8.751l-.073.192c-.841 2.129-1.325 4.194-1.48 6.25-.009.136-.027.264-.037.401a6.053 6.053 0 0 1-.036.402 5.462 5.462 0 0 1-.037.402 6.065 6.065 0 0 1-.036.402 5.455 5.455 0 0 1-.037.402 6.053 6.053 0 0 1-.036.402 6.057 6.057 0 0 1-.037.402 6.065 6.065 0 0 1-.036.402c-.009.137-.028.265-.037.402a6.056 6.056 0 0 1-.036.402c-.01.137-.019.265-.037.402l-.027.402c-.01.137-.028.265-.037.402a5.455 5.455 0 0 1-.037.402 6.053 6.053 0 0 1-.036.402l-.027.402c-.01.137-.028.265-.037.402-.009.128-.018.265-.037.402-.009.137-.027.265-.036.402a5.455 5.455 0 0 1-.037.402c-.009.137-.027.265-.036.402a5.462 5.462 0 0 1-.037.402 6.065 6.065 0 0 1-.036.402 6.06 6.06 0 0 1-.037.402c-.009.137-.027.265-.036.402a6.057 6.057 0 0 1-.037.402 6.065 6.065 0 0 1-.036.402c-.01.137-.028.265-.037.402-.009.137-.027.265-.037.402a6.053 6.053 0 0 1-.036.402 5.452 5.452 0 0 1-.037.402l-.027.402c-.009.137-.027.264-.037.402a6.056 6.056 0 0 1-.036.401 5.452 5.452 0 0 1-.037.403 6.053 6.053 0 0 1-.036.401c-.009.138-.028.265-.037.403a6.065 6.065 0 0 1-.036.401 6.06 6.06 0 0 1-.037.402 6.053 6.053 0 0 1-.036.402c-.009.138-.028.265-.037.402a6.065 6.065 0 0 1-.036.402c-.01.137-.019.265-.037.402a5.455 5.455 0 0 1-.037.402c-.009.137-.027.265-.036.402a5.457 5.457 0 0 1-.037.402 6.065 6.065 0 0 1-.036.402c-.009.137-.028.265-.037.402-.009.137-.027.265-.036.402a6.057 6.057 0 0 1-.037.402 6.053 6.053 0 0 1-.036.402 6.07 6.07 0 0 1-.037.402 6.065 6.065 0 0 1-.036.402c-.019.156-.028.31-.037.457-.009.11-.018.22-.018.329-.009.137-.028.265-.037.402a6.053 6.053 0 0 1-.036.402 6.69 6.69 0 0 1-.037.402c-.009.137-.027.265-.036.402-.01.128-.028.265-.037.402a5.452 5.452 0 0 1-.037.402 6.06 6.06 0 0 1-.036.402 5.462 5.462 0 0 1-.037.402 6.056 6.056 0 0 1-.036.402 5.452 5.452 0 0 1-.037.402 6.053 6.053 0 0 1-.036.402 5.462 5.462 0 0 1-.037.402 6.065 6.065 0 0 1-.036.402c-.009.137-.028.264-.037.401 0 .074-.018.138-.027.21-.347.046-.685.101-1.033.147l-.329.046c-.785.11-1.589.219-1.982.219-.155-.01-.594-.092-.904-.146-.695-.12-1.554-.275-2.531-.366l-.722-.073c-1.041-.11-2.329-.247-3.764-.247-.767 0-1.498.037-2.22.12-.046 0-.091 0-.137.008v-.073c0-.128.009-.256.018-.383 0-.128.01-.256.019-.384 0-.128.009-.256.018-.384 0-.128.009-.256.018-.384 0-.127.009-.255.018-.383 0-.128.01-.256.019-.384s.009-.256.018-.384.009-.255.018-.383c0-.128.009-.256.019-.384 0-.128.009-.256.018-.384 0-.128.009-.256.018-.383 0-.129.009-.256.018-.384 0-.128.01-.256.019-.384 0-.128.009-.256.018-.384 0-.128.009-.255.018-.383 0-.128.009-.256.018-.384 0-.128.01-.256.019-.384 0-.128.009-.256.018-.383 0-.128.009-.256.018-.384 0-.128.009-.256.019-.384 0-.128.009-.256.018-.384 0-.127.009-.255.018-.383 0-.128.009-.256.018-.384 0-.128.009-.256.019-.384 0-.128.009-.256.018-.383 0-.128.009-.256.018-.384 0-.128.009-.256.018-.384 0-.128.01-.256.019-.384 0-.127.009-.255.018-.383.1-2.266.091-4.65-.128-7.108v-.146c0-.128.009-.265.018-.393 0-.128.009-.265.019-.393 0-.128.009-.265.018-.393 0-.128.009-.265.018-.393 0-.127.009-.264.018-.392 0-.128.01-.265.019-.393 0-.128.009-.265.018-.393 0-.137.009-.265.018-.393 0-.128.009-.265.019-.393 0-.137.009-.265.018-.402.155-3.572-.028-6.897-.238-9.812-.31-4.202-.292-8.505-.265-13.064 0-1.28.009-2.549.009-3.828 0-2.558.055-5.089.11-7.784.037-1.699.073-3.407.101-5.107.082-6.112-3.097-10.405-8.954-12.096a116.25 116.25 0 0 0-5.646-1.48 12.774 12.774 0 0 0-2.978-.338c-.923 0-1.717.092-2.238.165-2.156.292-4.02.438-5.692.438a24.9 24.9 0 0 1-3.042-.173 17.542 17.542 0 0 0-2.101-.128c-1.407 0-2.659.155-3.618.283-1.919.238-3.837.502-5.747.767-1.799.247-3.59.494-5.381.713l-.118.018c-2.942.366-5.336 1.416-7.108 3.033-1.562-1.58-3.581-2.704-5.884-3.215a82.054 82.054 0 0 1-2.585-.622c-.978-.237-1.946-.484-2.924-.694a12.782 12.782 0 0 0-2.795-.301c-.868 0-1.59.082-2.065.137-.713.082-1.416.191-2.129.301-.529.082-1.251.201-1.48.21-2.247-.036-4.549-.173-6.979-.32-1.042-.064-2.083-.127-3.125-.182-.585-.028-1.169-.092-1.754-.146-1.252-.12-2.677-.247-4.266-.247-1.206 0-2.321.073-3.426.228-.951.137-2.074.201-3.426.201-.585 0-1.17-.009-1.754-.027a43.017 43.017 0 0 1-2.166-.128c-1.242-.091-2.658-.192-4.184-.192-.74 0-1.443.027-2.138.073-3.663.256-7.555.375-11.931.375-.868 0-1.727 0-2.595-.01h-.612c-3.563 0-7.016.311-10.552.95a12.01 12.01 0 0 0-4.413 1.737 12.97 12.97 0 0 0-2.64-1.152c-4.495-1.416-8.651-2.11-12.717-2.11-2.229 0-4.449.21-6.605.63l-.557.11c-.667.128-1.563.31-1.974.338a24.6 24.6 0 0 0-4.769-.466c-3.353 0-6.669.658-10.122 2.01l-.119.046c-5.418 2.11-8.095 6.294-7.757 12.096.092 1.653.211 3.307.32 4.96.082 1.206.165 2.412.238 3.618.018.33.045.649.064.978-.685-1.517-1.462-3.207-2.567-4.943-1.636-2.567-3.335-5.052-4.98-7.445a618.826 618.826 0 0 1-2.722-4.002c-2.028-3.024-4.751-4.87-8.113-5.472-.42-.074-.84-.174-1.26-.265-1.206-.274-2.705-.612-4.431-.759-3.847-.32-7.629-.53-12.124-.749-1.014-.045-2.201-.1-3.435-.1-1.233 0-2.357.055-3.435.155-2.476.247-4.906.557-7.254.868-1.306.174-2.622.338-3.937.493-5.756.695-9.895 5.208-10.068 10.982-.028.986-.073 1.964-.119 2.95-.055 1.097-.1 2.184-.137 3.271l-.027 1.115a51.643 51.643 0 0 0-8.816-8.698c-1.554-1.206-3.079-2.256-4.55-3.28-1.069-.74-2.074-1.434-3.015-2.137-2.193-1.635-5.518-4.12-10.123-5.235-.666-.165-1.333-.338-2-.512-1.599-.42-3.262-.85-5.08-1.187-1.809-.348-3.499-.558-5.143-.759-.731-.091-1.471-.182-2.202-.292a55.427 55.427 0 0 1-2.503-.448c-2.32-.447-4.952-.95-7.994-.95-.366 0-.74 0-1.106.019-5.847.246-10.314.374-14.471.41-3.325.028-7.464.065-11.904 1.69-.174.065-.713.193-1.096.284l-.567.137c-6.687 1.644-12.096 3.673-17.02 6.377a20.213 20.213 0 0 0-5.436 4.376c-1.973 2.275-3.837 4.002-5.673 5.271-3.198 2.211-5.774 4.925-7.857 8.268-.073.11-.146.21-.22.32-.356.512-.904 1.288-1.415 2.257-.083.155-.174.32-.265.475-.667 1.197-1.681 2.996-2.202 5.4-.713 3.297-1.964 6.66-3.307 10.113l-.083.2c-.402 1.005-1.142 2.86-1.215 5.29a374.54 374.54 0 0 0-.118 10.26c0 1.023.036 2.046.073 3.07.045 1.352.091 2.621.009 3.645-.256 3.398-.448 7.043.228 11.036.31 1.8.576 3.609.85 5.408.274 1.828.548 3.655.859 5.491.301 1.79.913 3.618 1.827 5.436l.977 1.955c1.608 3.207 3.271 6.523 5.09 9.812 1.872 3.38 4.202 6.358 6.96 8.898.12.11.238.229.357.329.119.11.228.228.347.329.119.11.229.228.347.338.119.11.229.228.347.338.12.11.229.228.348.329.118.11.228.228.347.329.118.109.228.228.347.338.119.11.228.219.347.329.119.109.229.228.347.329.119.109.229.228.347.329.12.109.229.228.348.338.118.109.228.219.347.328.119.11.228.229.347.329.119.11.228.229.347.329.119.11.229.229.347.338.119.11.229.22.347.329.12.11.229.229.348.329.118.11.228.228.347.338.119.11.228.219.347.329.119.11.228.219.347.329.119.11.228.228.347.329.119.109.229.228.347.338.12.109.229.219.348.329.118.109.228.228.356.329.119.109.228.228.347.328.119.11.228.229.347.339.119.109.229.219.347.328.12.11.229.229.357.338.118.11.228.229.347.329.119.11.237.229.356.338.119.11.228.22.347.329.119.11.229.229.347.329.12.11.229.229.348.329.118.11.228.228.356.338.119.11.228.219.347.329.119.11.228.228.347.329.119.109.229.228.347.338.12.109.229.219.347.329.12.109.229.219.348.329.118.109.228.228.347.329.119.109.228.228.347.338.119.109.228.219.347.328.119.11.229.229.347.329.12.11.229.229.347.329.12.11.229.229.348.338.118.11.228.22.347.329.119.11.228.229.347.329.119.11.228.228.347.329.119.11.229.228.347.338.12.11.229.219.347.329.12.109.229.228.348.329.118.109.237.228.347.338.119.109.228.219.347.329.119.109.237.228.356.338.12.109.229.228.348.329.118.109.228.228.347.338.118.109.228.219.347.329.119.109.228.228.356.328.119.11.228.229.347.329.119.11.229.229.347.338.12.11.229.22.348.329.118.11.228.229.347.329.119.11.228.229.347.338.119.11.228.229.347.329.119.11.229.219.347.329.119.11.229.228.347.329.12.109.229.228.348.338.118.109.228.228.347.338.118.11.228.219.347.329.119.109.228.228.347.329.119.109.229.228.347.338.119.109.229.219.347.329.12.109.229.228.348.338.118.109.228.228.347.329.118.109.228.228.347.338.119.109.228.219.347.328.119.11.228.229.347.329.119.11.229.229.347.329.12.11.229.229.348.338.118.11.228.219.347.329.119.11.237.229.356.338.119.11.228.229.347.329.119.11.229.228.347.329.12.11.229.219.347.329.12.109.229.228.348.329.118.109.237.228.347.338.119.109.228.219.347.329.119.109.228.228.347.329.119.109.229.228.347.328.12.11.229.229.347.338.12.11.229.229.348.329.118.11.228.229.347.329.119.11.228.229.347.329.119.11.228.229.347.338.119.11.229.219.347.329.12.11.229.228.347.329.12.11.229.228.348.338.118.11.228.219.347.329.119.109.228.228.347.329.119.109.228.228.356.329.119.109.229.228.347.329.12.109.229.228.348.328.118.11.228.229.347.329.119.11.228.229.347.329.119.11.228.229.347.338.119.11.228.22.347.329.119.11.229.229.347.329.12.11.229.228.348.338.118.11.228.219.347.329.119.11.228.219.347.329.119.109.228.228.347.329.119.109.228.228.347.338.119.109.229.219.347.329.12.109.229.228.348.338.118.109.228.228.347.329.118.109.228.228.347.338.119.109.228.219.347.329.119.109.229.228.347.328.119.11.229.229.347.338.12.11.229.229.347.329.12.11.229.22.348.329.119.11.228.229.347.329.119.11.228.228.347.338.119.11.228.229.347.338.119.11.229.219.347.329.12.11.229.228.347.329.12.11.229.228.348.338.118.11.228.219.347.329.119.109.228.228.347.329.119.109.228.228.347.329.119.109.229.228.347.338.12.109.229.219.347.329.12.109.229.228.348.328.118.11.228.229.347.338.119.11.228.22.347.329.119.11.228.229.347.329.119.11.229.229.347.329.12.11.229.229.348.338.118.11.228.219.347.329.118.11.228.228.347.329.119.11.228.228.347.338.119.11.228.228.347.329.119.11.229.219.347.329.12.109.229.228.348.329.118.109.228.228.347.338.118.109.228.219.347.329.119.109.228.228.347.338.119.109.228.228.347.329.119.109.228.228.347.338.12.109.229.219.348.328.118.11.228.229.347.338.118.11.228.22.347.329.119.11.228.229.347.338.119.11.228.229.347.338.119.11.228.229.347.329.12.11.229.229.347.329.12.11.229.229.348.329.118.11.228.228.347.329.119.11.228.228.347.338.119.11.228.228.347.329.119.11.229.228.347.329.119.109.229.219.347.329.12.109.229.228.348.329.118.109.228.228.347.328.118.11.228.229.347.329.119.11.228.229.347.329.119.11.229.229.347.329.119.11.229.229.347.329.12.11.229.228.348.338.118.11.228.219.347.329.118.11.228.228.347.329.119.109.228.228.347.338.119.11.228.219.347.329.119.109.229.228.347.329.12.109.238.228.357.338.119.109.228.228.347.329.119.109.228.219.347.328.119.11.228.229.347.329.119.11.229.229.347.329.12.11.229.229.347.338.12.11.229.22.348.329.118.11.228.229.347.329.119.11.237.228.356.338.119.11.229.219.347.329.12.11.229.228.347.329.12.11.229.228.348.338.118.11.228.228.347.329.119.109.228.219.347.329.119.109.228.228.347.329.119.109.229.228.347.328.12.11.229.229.347.339.12.109.229.219.348.328.118.11.228.229.347.329.119.11.228.229.347.329.119.11.228.229.347.338.119.11.228.229.347.329.119.11.229.229.347.329.12.11.229.228.348.338.118.11.228.219.347.329.118.11.228.228.347.329a27.792 27.792 0 0 0 2.512 2.128c2.96 2.202 6.003 4.331 8.634 6.158 1.553 1.078 3.179 1.836 4.842 2.248 4.842 1.196 10.15 2.475 16.7 4.019.868.201 1.773.311 2.686.311.813 0 1.635-.082 2.439-.238 2.083-.411 4.276-.794 6.295-.794.292 0 .594 0 .886.027.357.018.713.027 1.069.027.192 0 1.069-.009 1.115-.009H141.871c2.165 0 4.75-.091 7.454-.776.329-.083.658-.165.987-.238 1.8-.429 4.038-.968 6.368-2.147 1.644-.84 3.353-1.617 5.162-2.439 1.114-.512 2.229-1.023 3.334-1.544a15.462 15.462 0 0 0 3.481-2.247 263.007 263.007 0 0 0 5.555-4.925l.018.019c.073.109.155.219.237.319.074.11.156.22.238.329.073.11.155.219.238.32.073.11.155.219.237.329.073.11.155.219.238.32.073.109.155.219.237.329.073.109.155.219.238.319.073.11.155.22.237.32.073.11.156.219.238.329a4.2 4.2 0 0 0 .237.32c.073.109.156.219.238.329.073.109.155.219.237.319.073.11.156.22.238.329.073.11.155.219.237.329.074.11.156.219.238.32.073.109.155.219.237.329.074.109.156.219.238.32.073.109.155.219.238.328.073.11.155.22.237.32.073.11.155.219.238.329.073.11.155.219.237.329.073.11.155.219.238.32.073.109.155.219.237.329 1.17 1.735 2.905 3.06 4.915 3.645.329.091.658.201.987.301 1.489.475 3.344 1.069 5.564 1.206 4.084.256 8.186.293 12.004.293h.119a37.75 37.75 0 0 0 11.045-1.627c4.952-1.516 7.483-5.737 6.459-10.771l-.082-.411a40.204 40.204 0 0 0-.63-2.768c.082-.475.146-.969.21-1.453.037.055.064.11.091.174.064.109.119.219.183.338.064.11.119.219.183.338.064.11.119.219.183.338.063.11.118.219.182.338.064.11.119.219.183.338a18.775 18.775 0 0 0 1.718 2.686 36.806 36.806 0 0 1 1.763 2.485c.018.027.036.064.055.091.063.11.109.22.173.329.064.11.11.219.174.329.064.11.109.219.173.329.064.11.11.219.174.329.064.109.109.219.173.329.064.109.11.219.174.32.064.109.11.219.174.328.064.11.109.22.173.32.064.11.11.219.174.329.064.11.109.219.173.329.064.11.11.219.174.329 1.571 2.823 4.266 4.595 7.537 4.906 1.663.155 3.408.347 5.518.612 3.225.402 6.706.594 10.671.594 1.608 0 3.298-.028 5.308-.092 2.019-.064 3.91-.338 5.573-.584l.932-.137c1.644-.238 3.078-.777 4.275-1.581a9.915 9.915 0 0 0 1.763.576c.558.118 1.106.256 1.663.393 1.508.374 3.207.803 5.125 1.014 2.586.283 5.089.392 7.51.493.676.027 1.352.055 2.028.091h.201a31.33 31.33 0 0 0 2.193.083c.795 0 1.571-.037 2.302-.119 4.13-.457 8.35-.53 12.818-.603l1.553-.028c.658-.009 1.315-.018 1.973-.018 2.951 0 5.884.101 8.99.219 1.407.046 2.814.101 4.221.137l.539.019c.575.018 1.142.036 1.708.036 1.371 0 3.444-.091 5.719-.831.521-.165.74-.192.759-.192 2.009-.164 3.809-.886 5.262-2.037 1.297.913 2.896 1.489 4.741 1.672h.092c.758.082 1.525.155 2.293.228 2.311.219 4.495.42 6.632.722 2.686.383 5.464.566 8.488.566 2.147 0 4.44-.091 6.998-.292l.758-.064c.777-.064 1.507-.128 2.092-.128.457 0 .704.036.832.073 1.571.402 3.243.603 4.951.603.229 0 .457 0 .685-.009 3.189-.101 6.313-.311 8.68-.484 1.425-.101 2.813-.238 4.156-.375 1.033-.1 2.056-.201 3.088-.283 1.005-.082 2.038-.128 3.143-.183l1.343-.064c5.217-.246 7.921-3.718 8.706-6.888.11-.439.229-.868.357-1.298.1-.356.201-.74.31-1.142.128.101.247.201.384.302 2.595 1.955 5.235 3.8 7.793 5.573l1.106.767c1.48 1.033 3.033 1.754 4.613 2.138a1922.765 1922.765 0 0 0 17.103 4.111c.758.183 1.562.274 2.366.274.785 0 1.599-.091 2.439-.265 2.677-.557 4.687-.804 6.541-.804.311 0 .612 0 .923.019.521.027 1.042.036 1.562.036.366 0 .722 0 1.087-.009h1.362c.411.009.831.018 1.242.018 2.631 0 4.97-.246 7.154-.749l.073-.018c2.32-.539 5.216-1.206 8.112-2.768 1.307-.704 2.741-1.352 4.276-2.038 1.023-.465 2.046-.922 3.06-1.416 1.051-.502 2.613-1.315 4.084-2.549a117.024 117.024 0 0 0 5.582-4.96l.603-.567c1.48-1.398 3.152-2.969 4.632-4.979 1.855-2.512 3.335-4.924 4.495-7.336.055-.119.11-.228.164-.347.055-.119.11-.238.174-.347.055-.119.11-.238.164-.347.055-.119.11-.238.174-.357.055-.119.11-.228.164-.347.055-.119.11-.237.174-.356.055-.119.11-.238.165-.347.054-.119.109-.238.173-.348.055-.118.11-.237.174-.356.055-.119.109-.237.164-.347.055-.119.11-.238.174-.347.055-.119.109-.238.173-.356a6.27 6.27 0 0 1 .174-.348c.055-.118.11-.237.173-.347.055-.119.11-.237.165-.347.055-.119.11-.237.173-.347.037-.073.074-.137.101-.201.274.795.539 1.59.831 2.393.521 1.426 1.115 2.732 1.636 3.883.365.813.712 1.581.995 2.284 1.91 4.842 3.838 9.849 5.902 15.312 1.325 3.499 4.075 5.893 7.738 6.742 3.499.804 7.19 1.197 11.265 1.197.977 0 1.992-.027 3.033-.064 1.489-.064 2.978-.164 4.404-.256.365-.027.721-.045 1.078-.064 1.105.101 2.201.156 3.261.156 3.097 0 6.03-.421 8.962-1.279 2.458-.722 4.404-2.065 5.793-3.984.082-.109.164-.21.246-.328.082-.11.165-.22.247-.32l.247-.329c.082-.11.164-.21.246-.32l.247-.329.247-.329c.082-.109.164-.21.246-.319l.247-.329c.082-.11.164-.22.247-.32.082-.11.164-.21.246-.329l.247-.329c.082-.109.164-.21.247-.32.082-.109.164-.21.246-.319l.247-.329.247-.329c.082-.11.164-.21.246-.32l.247-.329c.082-.109.164-.21.247-.32l.246-.328c.083-.11.165-.211.247-.32l.247-.329.246-.329c.083-.11.165-.21.247-.32l.247-.329.246-.329c.083-.109.165-.21.247-.319.082-.11.164-.22.247-.32l.246-.329.247-.329c.082-.109.164-.21.247-.329.082-.109.164-.21.246-.319.083-.11.165-.211.247-.329.082-.11.164-.211.247-.329.082-.11.164-.21.246-.32l.247-.329c.082-.11.164-.21.247-.32.082-.109.164-.21.246-.319l.247-.329c.082-.11.164-.21.247-.32.082-.11.164-.21.246-.32.083-.109.165-.21.247-.329.082-.109.164-.21.247-.329.082-.109.164-.21.246-.319.083-.11.165-.21.247-.329.082-.11.164-.21.247-.32.082-.11.164-.21.246-.329l.247-.329c.082-.109.164-.21.247-.32.082-.109.164-.21.246-.328.083-.11.165-.22.247-.32l.247-.329c.082-.11.164-.21.246-.32.083-.109.165-.21.247-.329.082-.109.164-.219.247-.32l.246-.328c.083-.11.165-.211.247-.329.082-.11.164-.22.247-.32l.246-.329c.083-.11.165-.21.247-.32l.247-.329c.082-.109.164-.219.246-.319.083-.11.165-.21.247-.329l.247-.329c.082-.11.164-.21.246-.32l.247-.329c.082-.109.164-.219.247-.32l.246-.328c.083-.11.165-.22.247-.32l.247-.329a9.9 9.9 0 0 1 .246-.32l.247-.329c.027-.036.064-.073.091-.109a264.768 264.768 0 0 0-.009 9.291c.037 1.946.165 3.819.283 5.628.074.986.138 1.982.183 2.969.229 4.44 3.134 7.875 7.4 8.743.594.119 1.197.256 1.791.393 1.535.356 3.271.749 5.162.959 2.567.283 5.061.393 7.473.493.639.028 1.279.055 1.918.092.631.027 1.261.045 1.892.045.694 0 1.425-.018 2.156-.055 1.818-.082 3.636-.182 5.445-.283l4.038-.219a67.55 67.55 0 0 1 3.042-.091h6.888c.311 0 .622-.01.923-.046l2.028.064c3.244.1 6.487.21 9.721.292h.374c1.426 0 2.686-.21 3.609-.383a33.182 33.182 0 0 0 1.855-.43c.338-.082.795-.201.959-.228 2.293-.256 4.266-1.197 5.783-2.659.082-.073.165-.155.247-.228.128-.101.246-.21.365-.32.128-.1.247-.21.366-.32.127-.1.246-.21.365-.319.128-.101.247-.211.365-.32.128-.101.247-.21.357-.32.128-.1.246-.21.365-.32.128-.1.247-.21.366-.319.127-.101.246-.211.365-.32.128-.101.247-.21.366-.32.127-.1.246-.21.365-.32.128-.1.247-.21.365-.32.128-.1.247-.21.366-.319.128-.101.246-.21.365-.32.128-.101.247-.21.366-.32.128-.1.246-.21.365-.32.119-.1.247-.21.366-.319.127-.101.246-.21.365-.32.128-.101.247-.21.365-.32.119-.1.247-.21.366-.32.119-.1.247-.21.365-.319.128-.101.247-.21.366-.32.128-.101.246-.21.365-.32.128-.1.247-.21.366-.32.127-.1.246-.21.365-.319.128-.101.247-.21.365-.32.128-.101.247-.21.366-.32.128-.1.247-.21.365-.32.128-.1.247-.21.366-.319.128-.101.246-.211.365-.32.128-.101.247-.21.366-.32.128-.1.246-.21.365-.32.128-.1.247-.21.365-.319.128-.101.247-.211.366-.32.128-.101.247-.21.365-.32.128-.1.247-.21.366-.32.128-.1.247-.21.365-.319.128-.101.247-.211.366-.32.128-.101.246-.21.365-.32.119-.1.247-.21.366-.32.128-.1.246-.21.365-.319.128-.101.247-.211.365-.32.128-.101.247-.21.366-.32.119-.1.247-.21.365-.32.119-.1.247-.21.366-.319.128-.101.246-.211.365-.32.128-.101.247-.21.366-.32.128-.1.246-.21.365-.32.128-.1.247-.21.365-.319.128-.101.247-.211.366-.32.128-.101.247-.21.365-.32.128-.101.247-.21.366-.32.128-.1.246-.21.365-.32.128-.1.247-.21.366-.319.128-.101.246-.21.365-.32.128-.101.247-.21.366-.32.127-.1.246-.21.365-.32.128-.1.247-.21.365-.319.128-.101.247-.21.366-.32.128-.101.247-.21.365-.32.128-.109.247-.21.366-.32.128-.1.246-.21.365-.319.128-.101.247-.21.366-.32.118-.101.246-.21.365-.32.128-.1.247-.21.366-.32.127-.1.246-.21.365-.319.128-.101.247-.21.365-.32.119-.101.247-.21.366-.32.119-.1.246-.21.365-.32.128-.1.247-.21.366-.319.128-.11.246-.211.365-.32.128-.101.247-.21.366-.32.118-.1.246-.21.365-.32.128-.1.247-.21.365-.319.128-.101.247-.211.366-.32.119-.101.246-.21.356-.32.128-.1.247-.21.366-.32.127-.1.246-.21.365-.319.128-.101.247-.211.365-.32.128-.101.247-.21.366-.32.128-.1.247-.21.365-.32.128-.1.247-.21.366-.319.128-.101.246-.211.365-.32.128-.101.247-.21.366-.32.128-.1.246-.21.365-.32.128-.1.247-.21.365-.319.128-.101.247-.211.366-.32.119-.101.247-.21.365-.32.128-.1.247-.21.366-.32.128-.1.246-.21.365-.32.128-.1.247-.21.366-.319.118-.101.246-.21.365-.32.119-.101.247-.21.366-.32.127-.1.246-.21.365-.32.128-.1.247-.21.365-.319.128-.101.247-.21.366-.32.119-.101.246-.21.365-.32.128-.1.247-.21.366-.32.119-.1.246-.21.365-.319.128-.101.247-.21.366-.32.128-.101.246-.21.365-.32.128-.1.247-.21.365-.32.128-.1.247-.21.366-.319.128-.11.247-.21.365-.32.128-.101.247-.21.366-.32.128-.1.246-.21.365-.32.128-.109.247-.21.366-.319.128-.101.246-.21.365-.32.128-.101.247-.21.366-.32.127-.1.246-.21.365-.32.128-.1.247-.21.365-.319.128-.101.247-.211.366-.32.128-.101.247-.21.365-.32.128-.1.247-.21.366-.32.128-.1.246-.21.365-.319.119-.101.247-.211.366-.32.118-.11.246-.21.365-.32.128-.1.247-.21.365-.32.128-.109.247-.21.366-.319.128-.101.247-.211.365-.32.119-.101.247-.21.366-.32.128-.1.246-.21.365-.32.128-.1.247-.21.366-.319.128-.11.246-.211.365-.32.128-.101.247-.21.366-.32.127-.1.246-.21.365-.32.128-.1.247-.21.365-.319.128-.101.247-.211.366-.32.128-.101.246-.21.365-.32.128-.1.247-.21.366-.32.128-.1.246-.21.365-.32.128-.109.247-.21.366-.319.127-.101.246-.21.365-.32.128-.11.247-.21.365-.32.128-.1.247-.21.366-.32.119-.1.247-.21.365-.319.128-.11.247-.21.366-.32.128-.101.246-.21.365-.32.119-.1.247-.21.366-.32.127-.1.246-.21.365-.319.119-.101.247-.21.365-.32.128-.101.247-.21.366-.32.128-.1.247-.21.365-.32.119-.109.247-.21.366-.319.119-.101.246-.21.365-.32.119-.101.247-.21.366-.32.128-.11.246-.21.365-.32.128-.1.247-.21.366-.319.127-.101.246-.21.365-.32.128-.101.247-.21.365-.32.128-.1.247-.21.366-.32.119-.1.246-.21.365-.319.128-.101.247-.211.366-.32.118-.11.246-.21.356-.32.128-.1.247-.21.365-.32.128-.1.247-.21.366-.319.128-.11.247-.211.365-.32.128-.101.247-.21.366-.32.128-.1.246-.21.365-.32.128-.1.247-.21.366-.319.128-.101.246-.211.365-.32.128-.11.247-.21.365-.32.128-.1.247-.21.366-.32.128-.1.247-.21.365-.319.119-.101.247-.211.366-.32.128-.101.246-.21.365-.32.128-.11.247-.21.366-.32.118-.1.246-.21.365-.32.119-.1.247-.21.366-.319.118-.101.246-.21.365-.32.128-.101.247-.21.365-.32.128-.109.247-.21.366-.32.119-.1.247-.21.356-.319.128-.101.247-.21.366-.32.127-.101.246-.21.365-.32.119-.1.247-.21.365-.32.128-.1.247-.21.366-.319.128-.101.247-.21.365-.32.128-.101.247-.21.366-.32.128-.1.246-.21.365-.32.128-.1.247-.21.366-.319.128-.101.246-.21.365-.32.119-.101.247-.21.366-.32.127-.1.246-.21.365-.32.128-.1.247-.21.365-.319.128-.101.247-.21.366-.32.128-.11.246-.21.365-.32.128-.1.247-.21.366-.32.118-.1.246-.21.365-.319.119-.101.247-.211.366-.32.127-.101.246-.21.365-.32.128-.11.247-.21.365-.32.119-.1.247-.21.366-.319.119-.101.247-.211.365-.32.119-.101.247-.21.366-.32.128-.1.246-.21.365-.32.119-.109.247-.21.366-.319.118-.101.246-.211.365-.32.128-.101.247-.21.365-.32.064-.055.138-.11.201-.164 2.019-1.663 3.49-4.002 4.203-6.852l.347-1.352c.32-1.261.658-2.568.959-3.947.393-1.8.457-3.718.174-5.546"/><path fill="#fff" d="M238.291 39.248c.128 0 .256-.018.384-.018-.302-5.637-.622-11.283-.887-16.92-.054-1.096-.429-1.727-1.516-2.074-4.66-1.47-9.355-2.138-14.225-1.188-2.092.402-4.221.905-6.368.466-3.206-.657-6.258-.173-9.254 1.005-1.343.521-1.38.494-1.298 1.891.165 2.85.375 5.692.558 8.542.119 1.9.292 3.792.292 5.692 0 3.088-.183 6.185-.164 9.273.018 3.508.137 7.016.265 10.525.064 1.836.1 3.7.402 5.508.466 2.85.566 5.665-.183 8.479-.183.685-.256 1.397-.42 2.083-.046.192-.229.347-.348.52-.146-.173-.347-.32-.429-.511a43.427 43.427 0 0 1-.895-2.138c-2.814-7.18-6.56-13.85-11.146-20.035-1.425-1.928-2.686-3.92-3.691-6.075-.831-1.773-1.617-3.573-2.457-5.345-.914-1.928-1.681-3.956-2.823-5.746-2.421-3.81-5.053-7.492-7.556-11.247-.347-.52-.676-.913-1.334-1.032-1.58-.283-3.133-.767-4.723-.895-3.91-.33-7.839-.53-11.758-.722-1.781-.082-3.581-.155-5.354.018-3.663.366-7.317.905-10.972 1.334-.657.082-.922.338-.941 1.005-.064 2.083-.192 4.157-.256 6.24-.146 4.76-.201 9.52-.401 14.27-.256 6.002-.713 11.995-.905 17.998-.174 5.518-.621 11.054.146 16.572.256 1.818.466 3.664.448 5.5-.082 6.77-.283 13.54-.402 20.318-.046 2.796-.119 5.601.064 8.387.21 3.316.685 6.614 1.041 9.922.092.831.11 1.671.274 2.475.074.338.393.814.695.896 1.991.575 3.992 1.388 6.029 1.516 4.87.302 9.758.347 14.645.347 3.7 0 7.355-.511 10.899-1.598 1.197-.366 1.261-.466 1.024-1.599-.247-1.224-.475-2.448-.832-3.645-.338-1.17-.484-2.303-.256-3.508.768-4.121.777-8.278.402-12.434-.146-1.654-.292-3.317-.456-4.97-.183-1.891-.439-3.783-.576-5.674-.146-2.065-.466-4.13-.064-6.221.621-3.234.475-6.514.338-9.785 0-.183-.027-.356-.009-.539 0-.11.064-.22.091-.338.137.064.329.092.393.201.704 1.17 1.352 2.375 2.074 3.536 1.809 2.868 3.718 5.664 5.463 8.57a721.01 721.01 0 0 1 8.351 14.324c1.087 1.901 1.973 3.92 2.978 5.866 1.05 2.055 1.882 4.293 3.261 6.102 2.12 2.75 4.011 5.601 5.409 8.771.329.74.758 1.105 1.58 1.187 2.43.229 4.851.503 7.273.804 6.166.768 12.351.759 18.545.558 2.367-.073 4.733-.475 7.09-.813 1.251-.174 1.352-.357 1.526-1.572.146-.996.338-2.001.383-2.996.146-3.152.311-6.304.311-9.456 0-3.992.283-7.957.703-11.922.183-1.709.457-3.417.485-5.126.073-5.472-.064-10.954.109-16.417.165-5.408.457-10.808.183-16.225-.174-3.444-.247-6.898-.43-10.342-.21-3.855-.493-7.71-.74-11.566M403.824 67.99h.174c-.11 3.087-.256 6.175-.32 9.272a26.556 26.556 0 0 0 .21 4.084c.43 3.234.905 6.468 1.462 9.684.274 1.562.557 3.189 1.224 4.605 1.91 4.02 3.91 8.012 6.094 11.885a24.223 24.223 0 0 0 6.532 7.464c3.563 2.686 7.245 5.217 10.899 7.766.713.493 1.544.932 2.375 1.142a2165.25 2165.25 0 0 0 21.488 5.162c.493.118 1.051.054 1.562-.046 3.974-.831 7.967-1.398 12.041-1.197 1.608.082 3.216-.018 4.824.018 2.686.074 5.354-.054 7.985-.666 2.658-.613 5.29-1.216 7.747-2.54 3.134-1.69 6.459-3.024 9.666-4.568 1.051-.512 2.119-1.087 3.006-1.837 2.238-1.872 4.431-3.8 6.541-5.81 1.891-1.8 3.883-3.572 5.418-5.655 3.261-4.413 5.947-9.163 7.153-14.608.247-1.097.585-2.184.786-3.29.758-4.129 2.028-8.203 1.571-12.488-.11-1.005-.265-2.01-.311-3.015-.237-5.29-.456-10.58-.639-15.86-.046-1.206-.256-2.33-.768-3.444-1.598-3.508-3.06-7.08-4.668-10.589-2.96-6.45-7.364-11.758-13.064-15.978-2.293-1.7-4.669-3.29-6.98-4.97-1.782-1.307-3.572-2.558-5.783-3.07-2.193-.511-4.349-1.206-6.56-1.626-2.329-.448-4.714-.566-7.044-1.014-4.156-.786-8.304-1.434-12.571-1.243-5.353.229-10.716.302-16.07.457-.411.01-.822.1-1.224.21-6.623 1.855-13.411 3.225-19.551 6.55-1.324.723-2.521 1.5-3.526 2.65-2.348 2.695-4.915 5.198-7.893 7.19-1.526 1.023-2.732 2.275-3.737 3.764-.667.987-1.215 2.065-1.973 2.97-.996 1.187-1.508 2.576-1.791 4.02-.722 3.754-2.129 7.28-3.527 10.807-.502 1.27-.831 2.558-.803 3.974.073 3.27.027 6.541.027 9.812M577.05 125.582c4.34.493 8.341.192 12.279-.968.831-.247 1.498-.576 1.982-1.362 1.818-2.932 3.499-5.901 4.23-9.355.512-2.439 1.288-4.814 2.787-6.888a6.338 6.338 0 0 0 .822-1.581c1.206-3.407 2.567-6.779 3.499-10.26.913-3.407 1.827-6.797 3.8-9.73 1.179-1.762 1.672-3.654 1.965-5.645.31-2.074.785-4.075 1.781-5.938 1.471-2.723 2.558-5.592 3.563-8.515 1.507-4.376 3.371-8.615 4.952-12.964 1.626-4.458 3.261-8.944 4.074-13.64.612-3.517 1.946-6.706 3.792-9.711a3.54 3.54 0 0 0 .338-.63c.164-.44.374-.887.447-1.344.32-2.055.576-4.12.887-6.175.082-.585-.055-.914-.695-.969-2.183-.21-4.367-.539-6.559-.621-6.962-.265-13.933-.43-20.894-.658-1.727-.055-3.426-.1-5.116.475-1.179.402-2.412.658-3.645.84-1.353.202-1.974.905-2.339 2.22a245.984 245.984 0 0 1-3.39 11.064c-1.58 4.75-2.887 9.547-3.069 14.59-.028.75-.274 1.517-.521 2.239-1.023 3.024-2.33 5.92-2.887 9.126-.804 4.614-1.992 9.164-3.097 13.713-.841 3.463-1.809 6.889-2.732 10.324-.073.274-.237.512-.365.776-.137-.219-.329-.42-.42-.657-.594-1.553-1.151-3.125-1.745-4.669-1.681-4.385-3.079-8.843-3.828-13.503-.969-6.057-2.622-11.94-4.797-17.668-.968-2.55-2.101-5.043-2.366-7.803-.246-2.603-.585-5.18-1.443-7.683-1.124-3.316-2.129-6.669-3.143-10.022-.283-.95-.786-1.516-1.791-1.708-2.622-.503-5.207-1.252-7.93-1.07-2.201.147-4.403.311-6.605.32-2.677 0-5.354-.283-8.021-.2-4.696.137-9.392.429-14.088.694-1.087.064-1.251.283-.932 1.361.603 2.046 1.27 4.084 1.946 6.103.832 2.476 1.754 4.915 2.558 7.4 1.462 4.513 2.695 9.108 4.331 13.558 1.562 4.239 3.152 8.469 4.211 12.854 1.398 5.792 3.225 11.42 5.72 16.828.767 1.672 1.589 3.326 2.192 5.052 1.48 4.203 2.768 8.46 4.294 12.644.932 2.558 2.22 4.989 3.225 7.528 2.54 6.459 5.034 12.946 7.491 19.432.448 1.197 1.179 1.791 2.394 2.074 5.034 1.161 10.132 1.398 15.257 1.17 2.613-.11 5.226-.302 7.574-.448M297.884 58.241v-.118c-4.76-.092-9.528-.183-14.297-.265a45.742 45.742 0 0 0-2.504 0c-.667.027-.986-.238-.995-.914a316.685 316.685 0 0 0-.22-6.605c-.036-.813.393-.978 1.078-1.05 2.367-.238 4.724-.522 7.09-.796 6.313-.712 12.607-.402 18.875.402 3.097.393 6.166.484 9.254.137 1.435-.164 1.462-.182 1.59-1.59.53-5.737.95-11.492 1.635-17.211.366-3.07-.521-5.875-1.133-8.77-.137-.65-.456-1.024-1.142-1.17-1.854-.411-3.691-.914-5.545-1.325-.448-.1-.95-.037-1.416.018-1.654.192-3.307.603-4.952.576-3.499-.055-6.998-.329-10.497-.512-2.485-.128-4.933-.603-7.464-.246-2.284.32-4.623.338-6.934.265-2.485-.073-4.924-.448-7.455-.265-5.098.356-10.232.438-15.348.383a48.621 48.621 0 0 0-9.218.786c-.722.128-1.024.466-1.106 1.142-.1.822-.219 1.654-.375 2.467-.758 4.056-.749 8.158-.666 12.26.073 3.627.392 7.254.356 10.872-.037 3.38-.274 6.779-.631 10.14-.803 7.73.22 15.459-.127 23.188 0 .173.036.356.054.53.393 3.243.795 6.486.393 9.766-.128 1.005-.301 2-.329 3.005-.137 6.25-.338 12.489-.319 18.738.009 3.499.42 6.998.621 10.497.036.622.237.996.868 1.142 2.494.539 4.961 1.325 7.482 1.599 3.782.42 7.601.503 11.402.694 1.425.073 2.868.156 4.284 0 6.341-.703 12.718-.74 19.076-.858 6.541-.119 13.101.237 19.642.429 2.202.064 4.386.238 6.542-.466 1.068-.347 2.183-.621 3.298-.713 1.023-.082 1.498-.603 1.735-1.47a210.713 210.713 0 0 0 1.499-5.866c.091-.383-.037-.822-.092-1.233-.383-3.124-.95-6.212-.959-9.383-.018-3.563-.173-7.135-.31-10.698-.046-1.15-.156-1.224-1.27-1.123-1.837.164-3.664.41-5.5.566-2.549.22-5.098.576-7.647.52-4.038-.081-8.067-.694-12.123-.145-.293.036-.594.009-.896-.019-2.302-.228-4.604-.502-6.915-.676a95.86 95.86 0 0 0-6.067-.265c-.877-.009-1.123-.32-1.105-1.15.036-2.376.027-4.76 0-7.145 0-1.087.183-1.124 1.078-1.023 2.722.292 5.445.566 8.177.657 2.548.092 5.107-.027 7.665-.127 2.256-.092 4.504-.393 6.76-.402 3.39 0 6.779.2 10.178.255 2.475.046 2.512.01 3.197-2.338.749-2.568 1.252-5.135.886-7.885-.575-4.412-.895-8.862-1.288-13.302-.091-1.005-.064-2.019-.11-3.033-.054-1.233-.073-1.233-1.37-1.279-.356-.009-.713-.009-1.069 0l-15.357.384M681.729 125.262v-.109c5.418.173 10.835.365 16.253.502.941.028 1.891-.119 2.814-.292 1.461-.283 2.877-.786 4.348-.941 1.206-.137 1.627-.795 1.873-1.782.42-1.672.868-3.334 1.234-5.015a4.677 4.677 0 0 0 .054-1.745c-.584-3.764-.941-7.537-.904-11.365.027-2.915-.192-5.83-.347-8.734-.064-1.151-.174-1.243-1.279-1.142-1.837.164-3.664.41-5.5.566-2.549.22-5.098.567-7.647.52-4.038-.081-8.067-.693-12.123-.136-.293.036-.594.009-.895-.018-2.303-.229-4.605-.503-6.916-.677-2.019-.155-4.038-.219-6.067-.273-.703-.019-1.123-.156-1.114-.978a416.73 416.73 0 0 0 0-7.5c0-.677.21-.914.959-.841 2.604.256 5.217.52 7.829.612 2.668.091 5.345.027 8.013-.064 2.311-.073 4.622-.402 6.934-.411 3.389-.01 6.788.164 10.177.256.42.009.832 0 1.252-.019.786-.036 1.27-.374 1.544-1.196.987-3.024 1.644-6.048 1.188-9.273-.741-5.18-1.27-10.379-1.325-15.623-.018-1.717-.037-1.763-1.837-1.717-3.389.073-6.788.292-10.177.283-7.501-.037-15.01-.201-22.511-.274-.813 0-1.187-.201-1.187-1.087.018-2.083-.037-4.166-.101-6.25-.027-.803.228-1.169 1.087-1.25 2.366-.22 4.724-.522 7.09-.787 6.249-.712 12.488-.41 18.701.384 3.216.411 6.404.503 9.611.137 1.224-.137 1.224-.137 1.379-1.398.028-.237.019-.475.046-.712.448-4.678.905-9.346 1.343-14.015.164-1.717.566-3.453.402-5.143-.21-2.23-.831-4.422-1.37-6.614-.083-.339-.622-.686-1.014-.804-1.362-.412-2.76-.713-4.139-1.06-1.224-.31-2.412-.439-3.691-.165-1.325.293-2.713.494-4.075.457-3.563-.1-7.116-.365-10.679-.539-2.421-.119-4.815-.594-7.291-.228-2.759.402-5.554.603-8.359.137-1.517-.247-3.079-.31-4.614-.256-2.311.082-4.623.438-6.943.484-3.874.082-7.747-.018-11.612.037-1.717.027-3.435.2-5.143.41-1.051.129-2.44.101-3.015.74-.658.723-.649 2.093-.813 3.207-.649 4.367-.905 8.753-.64 13.156.156 2.55.475 5.107.448 7.656-.046 3.682-.338 7.364-.548 11.045-.247 4.395-.914 8.78-.448 13.183.356 3.39.283 6.77.073 10.16-.036.53.073 1.06.128 1.59.311 3.133.74 6.257.42 9.427-.255 2.485-.539 4.97-.603 7.465-.109 4.878-.164 9.757-.082 14.635.064 3.508.411 7.007.585 10.506.036.759.265 1.234 1.05 1.398 2.613.53 5.208 1.27 7.848 1.562 3.728.412 7.482.503 11.228.686 1.361.064 2.741.054 4.111-.009 3.984-.192 7.958-.43 11.941-.631a97.23 97.23 0 0 1 4.285-.119c2.914-.018 5.838 0 8.752 0M331.66 68.154h-.375c.192 6.66.421 13.32.576 19.98.155 6.642.612 13.302-.914 19.88-.219.941-.073 2.01.11 2.987.539 2.978 1.242 5.929.987 8.99-.074.831-.037 1.663-.028 2.503.018 1.389.037 1.343 1.37 1.471 3.902.384 7.821.685 11.704 1.242 5.755.823 11.511.722 17.276.275 2.658-.201 5.298-.53 7.966.146 1.37.347 2.832.475 4.248.429 3.508-.11 7.017-.329 10.516-.594 3.024-.219 6.038-.575 9.062-.822 1.956-.164 3.92-.228 5.875-.338.658-.037 1.343 0 1.553-.859.74-2.978 1.891-5.883 1.562-9.063-.338-3.261-.402-6.532-.036-9.802.393-3.49-.521-6.852-.914-10.27-.082-.712-.438-.894-1.069-.812-.411.055-.831.055-1.242.11-2.759.401-5.518.84-8.287 1.224-1.352.182-2.713.392-4.065.356-1.361-.037-2.704-.42-4.056-.548-1.535-.146-3.097-.375-4.605-.22-3.526.384-7.016-.082-10.515-.237-.676-.028-.941-.338-.996-.978-.201-2.667-.557-5.326-.594-7.984-.036-2.248.238-4.504.484-6.752.475-4.257.832-8.514.311-12.8a4.154 4.154 0 0 1-.009-1.068c.457-3.965.329-7.903.036-11.904-.438-5.856-.274-11.767-.283-17.66 0-4.34.155-8.688.21-13.028.018-1.48-.073-1.607-1.462-2.01a113.1 113.1 0 0 0-5.17-1.352c-.448-.11-.951-.055-1.407 0-3.783.521-7.574.75-11.384.293-1.041-.128-2.128.018-3.179.146-3.709.466-7.418 1.005-11.128 1.48-1.735.22-1.735.183-1.726 1.918 0 2.494.265 5.025-.073 7.474-.685 5.033-.695 10.076-.631 15.129.092 7.674.22 15.339.338 23.013M134.242 78.02c-.274-6.714-.648-13.42-.904-20.135-.046-1.343-.302-2.585-.822-3.782-1.627-3.7-3.198-7.419-4.916-11.073-2.786-5.91-6.824-10.853-11.968-14.864-2.393-1.864-4.969-3.472-7.4-5.29-1.964-1.47-3.928-2.878-6.367-3.471-2.193-.53-4.358-1.17-6.57-1.59-2.274-.43-4.585-.64-6.878-.968-3.225-.466-6.377-1.417-9.703-1.27-4.933.21-9.876.374-14.818.42-2.869.027-5.701.055-8.433 1.06-.886.329-1.827.52-2.75.749-5.043 1.233-9.93 2.878-14.489 5.39a9.693 9.693 0 0 0-2.613 2.101c-2.275 2.622-4.76 5.034-7.592 6.998-2.064 1.435-3.672 3.17-4.979 5.253-.411.658-.904 1.261-1.27 1.937-.548 1.042-1.242 2.074-1.48 3.198-.868 4.02-2.293 7.857-3.773 11.666-.256.658-.575 1.353-.594 2.029-.091 3.325-.11 6.66-.11 9.985 0 2.494.238 5.007.055 7.492-.219 2.86-.374 5.673.11 8.514.621 3.627 1.096 7.281 1.708 10.909.147.858.476 1.717.868 2.503 1.919 3.819 3.81 7.665 5.884 11.41 1.708 3.088 4.001 5.774 6.843 7.894 3.48 2.594 7.044 5.089 10.607 7.564.813.567 1.744 1.051 2.695 1.289 6.97 1.726 13.96 3.398 20.957 5.043.658.155 1.407.137 2.074 0 3.855-.768 7.73-1.38 11.685-1.142.649.036 1.306 0 1.964 0 3.682-.064 7.382.265 11.018-.649 2.412-.612 4.842-1.051 7.117-2.202 3.599-1.827 7.318-3.417 10.963-5.152a9.42 9.42 0 0 0 2.083-1.334 315.241 315.241 0 0 0 6.413-5.683c2.732-2.485 5.427-4.988 7.373-8.186 2.193-3.608 4.367-7.235 5.335-11.401.887-3.81 1.681-7.647 2.44-11.493.237-1.215.301-2.485.256-3.719m-38.983-3.79c-.75 3.17-1.48 6.385-2.668 9.4-1.014 2.567-2.631 4.897-4.056 7.281-.274.457-.896.786-1.426 1.005-1.69.722-3.37 1.544-5.134 2.001-1.708.439-3.517.484-5.29.685-.356.037-.712 0-1.069 0-4.933.128-9.72-.511-14.115-2.933-.603-.328-1.132-.876-1.562-1.425-3.572-4.495-5.691-9.583-5.883-15.357-.092-2.668-.083-5.354.027-8.021.046-1.225.32-2.476.695-3.655 1.15-3.608 3.151-6.77 5.527-9.693.475-.585 1.142-1.032 1.781-1.453 1.288-.85 2.64-1.607 3.929-2.466.84-.557 1.726-.768 2.704-.621 3.92.584 7.838.337 11.749-.11.822-.092 1.498.064 2.201.447 1.252.686 2.54 1.307 3.8 1.965.366.192.75.383 1.052.657 2.512 2.294 4.842 4.669 6.075 7.994a33.044 33.044 0 0 1 2.046 9.712 15.779 15.779 0 0 1-.383 4.586Z"/></g><mask id="c" width="74" height="71" x="425" y="38" maskUnits="userSpaceOnUse" style="mask-type:luminance"><path fill="#fff" d="M481.205 77.472c-.256.055-.201.503-.173.75.054.712.383 1.416.584 2.1.174.595.348.924.658 1.435.201.338.219.75.411 1.078.11.192.357.347.503.503.466.475.877 1.005 1.315 1.507.402.457.932 1.233 1.462 1.526.521.283.521-.064.42-.475a5.493 5.493 0 0 1-.164-1.088c-.009-.146-.274-.877-.238-.95.201-.329.713.512.85.676.886 1.051 1.708 2.202 2.668 3.189.146.155.466.511.712.347.229-.155-.036-.52-.091-.74-.192-.694-.11-1.516-.366-2.165-.036-.092-.383-.52-.118-.585.192-.046.447.375.557.52.365.467.621.96 1.069 1.362.512.457 1.023.95 1.562 1.37.503.384 1.032.43 1.626.558.192 0 .704.046.823-.137.265-.393-.366-.393-.539-.494-.402-.237-.722-.959-.969-1.333-.265-.402-.575-.786-.813-1.206-.566-1.033-.786-2.275-.914-3.436-.027-.264 0-1.114-.465-1.06-.119.01-.677 1.188-.786 1.344-.576-.411-1.032-.914-1.434-1.49-.201-.292-.476-.648-.859-.356-.156.12-.338.585-.439.777-.301.548-.658 1.069-.941 1.626-.603-.365-1.242-.822-1.754-1.306-.612-.567-1.105-1.261-1.772-1.773-.558-.43-.95-1.005-1.499-1.452-.146-.12-.676-.622-.877-.622h-.018m3.938-10.25c0 .301-.055.594.128.831.164.22.584.366.804.54 1.16.904 1.653 2.365 2.795 3.316.247-.439-.192-1.471-.274-1.974-.11-.685-.192-1.398-.411-2.055-.21-.621-.704-1.033-1.042-1.563-.301-.465-.356-.758-.986-.803-.896.475-1.023.694-1.014 1.708Zm-11.448-3.015c-.904.155-1.032.987-1.279 1.736-.603 1.864-.73 3.59-.73 5.536-.046 0-.092 0-.147.01.156 1.196.284 2.393.485 3.58.155.887.265 1.864.721 2.632.475.813.631 1.708 1.161 2.503.484.73.922 1.498 1.333 2.266.393.722 1.005 1.37 1.453 2.055.512.795 1.179 1.49 1.763 2.22.265.33.439.722.685 1.07.284.383.64.712.914 1.096.557.758 1.005 1.59 1.581 2.338.95 1.234 2.046 2.33 2.941 3.618.96 1.37 2.019 2.659 2.951 4.047.475.713.969 1.435 1.398 2.184.174.301.429.566.594.877.155.301.183.667.338.968.247.466.493.713.63 1.252.092.365.156.722.302 1.078.319.786.484 1.48.621 2.32.1.622.237.567.557.128.247-.338.503-.667.649-1.059.274-.695.585-1.965.429-2.695-.1-.466-.274-.887-.347-1.389-.055-.42-.064-.868-.183-1.27-.109-.365-.329-.713-.466-1.069-.155-.384-.237-.795-.392-1.178-.302-.704-.85-1.289-1.188-1.983-.356-.73-.685-1.443-1.096-2.156-.421-.74-.941-1.498-1.279-2.284-.11-.238-.165-.484-.32-.676-.219-.265-.402-.42-.548-.758-.329-.759-.85-1.307-1.261-2.028-.356-.63-.667-1.298-1.042-1.937-.456-.768-1.132-1.343-1.544-2.156-.374-.722-.749-1.316-1.187-1.992-.923-1.398-1.654-2.878-2.659-4.22-.539-.713-.877-1.627-1.242-2.44-.366-.822-.722-1.663-.978-2.53a10.502 10.502 0 0 1-.411-2.769c0-.904-.128-1.827-.073-2.732.055-.904.704-1.818.63-2.704-.073-.822-.749-.932-1.416-1.087-.612-.137-1.388-.438-2.055-.438-.101 0-.21 0-.302.027m-6.888-1.05c-.165.273-.402.51-.548.794-.375.731-.539 1.69-.722 2.485-.411 1.79-.603 3.618-.676 5.454-.082 1.864.237 3.782.411 5.646.082.905-.027 1.91.32 2.75.228.567.329 1.233.347 1.846.018.52-.009.676.219 1.15.137.284.183.521.247.832.155.822.457 1.608.658 2.421.201.831.319 1.709.621 2.503.155.411.393.777.585 1.17.182.374.255.776.42 1.15.32.723.795 1.444 1.206 2.13.219.365.347.767.603 1.105.219.292.484.53.676.85.246.402.393.886.676 1.27.246.328.63.52.895.83.219.266.338.604.548.878.22.283.521.493.777.749.639.621 1.114 1.334 1.836 1.855.274.201.466.447.731.657.302.247.63.311.978.457.338.146.612.411.977.484.292.064.621.055.941.055h.356c.996.009 1.983 0 2.979 0h3.407c.896.009 1.453-.036.676-.859a393.918 393.918 0 0 0-3.827-3.974c-.677-.694-1.298-1.425-1.919-2.174-.603-.722-1.306-1.361-1.836-2.138-1.033-1.498-2.239-2.85-3.18-4.422-.374-.62-.804-1.196-1.087-1.863-.32-.74-.895-1.316-1.261-2.047-.374-.758-.63-1.507-.95-2.284-.292-.712-.676-1.315-.904-2.064-.548-1.8-1.078-3.646-1.371-5.51-.301-1.909-.319-3.837-.338-5.764 0-.968.046-1.928.229-2.887.091-.493.091-.905.1-1.398 0-.402.147-.676.22-1.06.073-.392.054-.429-.256-.575-.283-.128-.649-.256-.959-.411-.549-.256-1.17-.503-1.745-.594a2.223 2.223 0 0 0-.384-.037c-.32 0-.42.147-.658.549m-5.573-2.65c-.648.366-1.224 1.087-1.635 1.69-.996 1.462-1.836 3.033-2.622 4.614-.201.41-.238.84-.393 1.26-.119.33-.356.585-.493.905-.201.475-.183.996-.357 1.47-.127.357-.374.677-.511 1.033-.631 1.645-.932 3.737-1.069 5.49-.165 2.03-.119 4.149-.101 6.186.019 2.092.348 4.138.658 6.212.274 1.828.85 3.627 1.042 5.445.036.366.31.567.438.905.128.356.183.767.274 1.142.247.94.503 1.854.722 2.795.192.85.521 1.581.804 2.403.146.42.183.713.484 1.032.274.284.649.512.987.695.648.338 1.498.301 2.275.274.228 0 .447-.018.657-.018h3.189v.137c2.394-.137 4.805-.183 7.19-.43.247-.027 1.635-.1 1.745-.274.182-.292-.347-.767-.521-.996-.585-.749-1.279-1.352-1.809-2.137-.521-.759-1.233-1.38-1.727-2.166-.502-.804-1.096-1.516-1.571-2.338-.475-.823-1.114-1.544-1.59-2.358-.21-.365-.255-.767-.493-1.114-.265-.393-.411-.74-.594-1.179-.338-.822-.849-1.425-1.069-2.302-.201-.804-.621-1.48-.794-2.311-.183-.877-.667-1.626-.887-2.513a40.642 40.642 0 0 1-.603-2.759c-.347-1.946-.265-3.974-.301-5.956-.037-2.074.384-4.066.548-6.121.073-.969.475-1.855.676-2.805.082-.42.119-.868.247-1.26.128-.403.356-.777.484-1.18.137-.429.137-.95.329-1.351.119-.256.365-.357.183-.658-.11-.183-.558-.338-.74-.457-.366-.237-.713-.356-1.115-.52-.512-.21-.923-.622-1.416-.622-.164 0-.329.046-.521.146m-6.148-2.65c-.475.156-.786.448-1.188.76-.813.639-1.58 1.315-2.366 1.982-.822.694-1.69 1.352-2.321 2.229-.575.804-1.297 1.434-1.863 2.256-.329.484-.649.978-.987 1.444-.283.393-.649.73-.859 1.17-.411.858-1.041 1.516-1.416 2.411-.365.895-.859 1.708-1.206 2.613-.155.393-.429.713-.585 1.105-.173.42-.164.923-.365 1.325-.219.439-.475.777-.63 1.26-.156.494-.293.987-.421 1.48-.255.978-.438 1.974-.612 2.97-.338 1.983-.429 3.983-.447 5.984-.009 1.05.201 1.992.338 3.015.137.96.109 1.927.164 2.887.064 1.105.32 2.22.493 3.307.074.448.11.941.311 1.352.155.338.292.402.585.694.658.63 1.425 1.216 2.22 1.663.758.43 1.663.594 2.43 1.023.42.229.74.503 1.206.667.438.165.886.329 1.325.494.84.31 1.699.493 2.567.694 1.023.237 2.055.457 3.097.548.31.028 1.069.155 1.306-.036.256-.211.009-.75-.073-.996-.265-.804-.648-1.471-.813-2.33-.155-.85-.575-1.59-.749-2.44-.192-1.004-.658-1.826-.932-2.813a41.08 41.08 0 0 1-.63-2.54c-.21-.977-.439-1.982-.539-2.978-.046-.393.018-.786-.046-1.17-.064-.41-.247-.776-.329-1.178-.192-.941-.091-1.91-.091-2.86 0-1.06-.073-2.12-.082-3.179-.01-1.06.036-2.12.237-3.17.155-.85-.027-1.745.201-2.585.256-.932.356-1.828.503-2.787.146-1.014.365-1.827.694-2.796.155-.465.237-.959.448-1.397.21-.439.429-.84.584-1.298.247-.749.713-1.334 1.014-2.046.649-1.544 1.572-2.878 2.65-4.157.338-.402.676-.804 1.032-1.197.247-.274.42-.383.137-.694-.247-.274-.813-.365-1.151-.502a59.725 59.725 0 0 1-1.352-.558c-.484.11-1.014.192-1.48.347m-6.404-1.16c-.731.155-1.334.548-2.047.767-.676.202-1.215.467-1.827.805-1.16.648-2.394 1.114-3.472 1.909-2.256 1.663-4.421 3.499-6.303 5.591-.512.566-.887 1.252-1.343 1.864-.393.52-.804 1.069-1.152 1.626-.639 1.06-1.342 2.055-1.891 3.207-.676 1.434-1.16 2.969-1.626 4.485-.447 1.426-.585 2.86-.758 4.34.164.822.283 1.443.722 2.147.402.63.84 1.316 1.096 2.01.502 1.352 1.434 2.503 2.156 3.745.192.33.265.823.484 1.097.165.2.393.329.548.566.457.685.749 1.49 1.279 2.12 1.088 1.315 2.266 2.503 3.527 3.654.164-.347 0-.712-.055-1.078-.082-.493-.082-.968-.082-1.47 0-.905-.018-1.819-.037-2.723-.045-1.919-.1-3.837 0-5.756.101-1.781.448-3.545.53-5.317.018-.393.219-.603.32-.96.073-.255-.037-.52.018-.776.055-.292.256-.475.356-.749.11-.31.119-.676.201-.996.393-1.462 1.005-2.841 1.426-4.285.192-.666.548-1.15.785-1.781.092-.247.137-.52.265-.75.137-.237.347-.428.466-.675.156-.31.21-.667.375-.96.155-.264.393-.538.584-.776.43-.512.695-1.05 1.051-1.617a9.983 9.983 0 0 1 1.489-1.827c.475-.466.777-1.06 1.27-1.499a177.968 177.968 0 0 0 3.024-2.795c.567-.53 1.233-.923 1.891-1.316.521-.301.923-.767 1.444-1.078.457-.274 1.27-.475 1.242-1.096-.027-.585-.986-.53-1.471-.576a3.926 3.926 0 0 0-.456-.027c-1.407 0-2.65.649-4.02.95m46.328-1.727c.429.229.895.083 1.315.293.348.173.585.594.814.886.127.164.566.96.776.904.256-.063.137-.85.137-1.014-.046-.758-.338-1.717-1.188-1.973a.962.962 0 0 0-.319-.046c-.612 0-1.206.512-1.544.95m-44.684-3.69c-.119 0-.228.009-.338.009-.32 0-.639 0-.959.009-.375 0-.74.018-1.115.009-1.443-.028-2.896-.119-4.321.128-1.325.228-2.713.2-4.02.457-.712.137-1.389.466-2.11.612-.576.119-1.106.219-1.663.42-2.174.813-4.34 1.8-6.094 3.353-.904.804-1.818 1.717-2.402 2.777-.64 1.151-1.142 2.32-1.426 3.609-.274 1.252-.575 2.512-.621 3.791-.045 1.38-.036 2.741-.036 4.13-.037 0-.064 0-.101.009.11.96.219 1.927.338 2.887.092.804.521 1.462.694 2.247.585-.448.786-1.069 1.124-1.717.329-.63.667-1.261.969-1.9.255-.53.438-1.024.822-1.444.429-.457.521-1.087.913-1.59.832-1.078 1.563-2.192 2.458-3.234.859-1.014 1.782-2.128 2.786-3.006.841-.73 1.709-1.37 2.613-1.991.512-.356.905-.804 1.453-1.106.493-.274.886-.63 1.343-.95 1.014-.703 2.247-1.297 3.38-1.781 1.16-.503 2.43-.731 3.572-1.298 1.151-.566 2.449-.803 3.7-1.05.85-.165.521-.603.402-1.298-.082-.511.083-1.224-.137-1.699-.164-.347-.511-.41-.877-.41-.109 0-.228 0-.338.008m3.883-.612c-.521.347-1.115.503-1.352 1.142-.265.704.082 1.434.594 1.937.511.493 1.16 1.005 1.79 1.334.548.283 1.142.447 1.7.73.703.366 1.379.65 2.156.841.721.174 1.48.11 2.22.155 1.242.074 3.088.11 4.001-.867.347-.375.85-.813.512-1.343-.229-.357-.813-.704-1.17-.878-1.37-.639-2.759-.95-4.257-1.087-.722-.064-1.763.046-2.448-.2-.777-.293.466-.43.767-.485.74-.119 1.544-.1 2.293-.11.713-.009 1.316.275 2.001.339.393.036.74-.028 1.133.082.32.091.63.237.941.347.594.2 1.334.2 1.809.603.256-.448-.347-1.407-.695-1.727-.502-.484-1.589-.64-2.247-.85-1.69-.547-3.271-.675-5.034-.675h-1.078c-1.261 0-2.622.073-3.627.74m21.058 3.928c-.009-.32 1.042-.74 1.252-.868.484-.292.941-.585 1.389-.923 1.617-1.206 3.526.42 4.467 1.718-1.06.585-2.503.338-3.7.338-.201 0-1.023.064-1.809.064s-1.58-.064-1.589-.32m.493-9.017c-.85.347-1.836.338-2.75.402-.868.064-1.736.137-2.595.201-1.836.146-3.782.137-5.591.466-1.608.292-3.07 1.087-4.339 2.055 1.206.576 2.804.594 4.111.86.986.2 2.183.885 2.804 1.69.339.438.649.822.695 1.379.045.566.027 1.16 0 1.727-.037.931-1.051 1.672-1.837 2.055-.264.128-1.151.338-.895.804.155.274 1.124.302 1.389.384.429.128.813.393 1.251.539.466.155.978.164 1.435.329.548.192 1.005.475 1.589.584.521.1 1.078.12 1.59.247.576.146 1.115.43 1.69.557.521.12 1.042.183 1.572.256 1.169.156 2.329.256 3.508.33.639.036 1.279.072 1.927.118h.329c.366 0 .777 0 1.014.192-.411.457-.529 1.023-.712 1.617-.229.703-.457 1.407-.594 2.138-.256 1.37-.338 2.722-.329 4.11 0 .238.165 1.252-.265 1.015-.301-.174-.256-1.307-.256-1.572.009-1.187-.201-2.393.083-3.563.164-.703.867-2.63.146-3.197-.393-.31-1.17-.31-1.645-.402-.621-.119-1.242-.228-1.863-.356-1.243-.256-2.504-.348-3.746-.576-1.078-.192-2.074-.585-3.125-.877-1.078-.292-2.238-.402-3.289-.777-1.251-.438-2.32-.42-3.636-.42-.301.01-3.197-.173-2.96.475.092.256 1.024.557 1.252.667.493.256.987.53 1.489.75.484.21 1.014.346 1.489.575.411.192.74.466 1.179.603.438.137.868.192 1.279.402.466.237.904.43 1.407.584a79.302 79.302 0 0 0 5.655 1.526c.923.21 1.836.43 2.777.567.493.073 1.005.11 1.471.301.539.22.375.338.21.832a12.188 12.188 0 0 0-.612 3.078c-.055.978.201 1.955.329 2.924.064.493.073 1.05.219 1.535.137.429.43.813.585 1.242.265.713.594 1.48 1.105 2.065.612.712 1.49 1.242 2.193 1.864.63.557 1.206 1.105 1.891 1.598.411.293.822.603 1.197.941.256.229.502.585.822.731.74.33 1.398-.977 1.928-1.343.795-.548 1.699.503 2.43.768.466.164.402.082.639-.411.165-.357.32-.677.53-1.005.448-.695.667-1.49 1.152-2.156.539-.75.785-1.444 1.114-2.303-.393 0-.703-.036-1.051.146.01-.347-.018-.593.128-.922.119-.274.311-.475.357-.786.091-.594-.147-1.462-.384-2-.457.401-.393.748-.64 1.27-.228.492-.767.593-1.251.83-.42.201-.621.476-.695.932-.036.247.074.74-.118.95-.146.165-.676.147-.841.074-.63-.302-.201-.521.146-.786.75-.567 1.024-1.946.64-2.796-.521.43-.841 1.106-1.425 1.462-.293.174-.238.192-.521-.046-.256-.219-.42-.539-.603-.813-.439-.685-1.042-1.087-1.608-1.644-.557-.548-.95-1.133-1.297-1.818-.357-.704-.777-1.362-.622-2.184.128-.703.613-1.17 1.161-1.534.584-.393 1.05-.832 1.708-1.106.676-.274 1.727-.466 2.248-.977-.402-.202-.996-.01-1.435.045-.566.073-.986.192-1.516.375-.055-.43-.064-.42.292-.548.375-.138.786-.229 1.169-.366a8.232 8.232 0 0 1 1.234-.338c.329-.064.703-.274 1.014-.301.374-.028.338.073.256.447-.092.393-.192.75-.238 1.16-.091.878-.274 1.819-.137 2.696.493-.348.923-.84 1.27-1.325.429-.594.42-1.17.585-1.864.137-.575.201-1.087.822-.721.566.347.804.877.767 1.543-.018.348-.447 1.216.019 1.261.374.037.338-.347.438-.584.347-.805.832-1.618 1.133-2.44.228-.621.119-.785-.457-.94-.575-.156-1.169-.238-1.754-.33-1.224-.2-2.457-.53-3.7-.62-.859-.065-1.827-.366-1.58-1.435.228-.978.173-1.681-.439-2.53-.639-.887-1.955-1.134-2.905-.65-.494.256-1.023.384-1.526.585-.347.137-.923.53-1.242.31.904-.648 2.165-1.04 3.179-1.507.512-.237 1.051-.374 1.617-.283.566.082.886.439 1.306.768.476.365.704.794.896 1.352.173.502 0 1.005.155 1.489.091.31.512.94.758 1.178.357.347.987.347 1.453.42 1.233.202 2.448.476 3.7.521 1.041.037 2.284.357 2.923-.74.53-.904-.237-2.375-.867-3.06-.393-.42-.786-.804-1.389-.777-.594.019-1.096.274-1.681.146.374-.83 1.069-1.407 1.644-2.1.101-.12.85-.896.813-.997-.091-.228-.84-.292-1.059-.338-.923-.228-1.837-.685-2.741-.986-.941-.32-1.864-.622-2.85-.786-.43-.073-.987-.22-1.417-.146-.365.064-.721.237-1.105.301-.731.119-1.434.22-2.056.576-.219.128-.694.594-.785.301-.11-.329.32-.53.521-.658.612-.356 1.224-.685 1.845-1.023.32-.173.886-.32.813-.721-.037-.21-.256-.348-.402-.494-.502-.493-1.142-1.087-1.772-1.38-.375-.173-.841-.182-1.234-.31-.356-.11-.694-.283-1.041-.402-.758-.265-1.489-.585-2.248-.831-1.032-.338-2.046-.649-3.069-.649-.567 0-1.142.092-1.727.338m-32.551-.52c-1.316.182-2.686.328-3.992.593-1.152.238-2.093.822-3.143 1.334-1.014.493-1.946 1.526-2.741 2.339a6.144 6.144 0 0 0-1.169 1.69c-.238.52-.412 1.142-.804 1.562.53.192 1.352-.192 1.882-.393.731-.274 1.37-.676 2.119-.922 1.444-.475 2.933-.823 4.422-1.106 1.672-.32 3.398-.237 5.089-.265 1.735-.027 3.48-.036 5.216-.064.009-.027.019-.045.028-.073 1.416-.43 2.877-.676 4.33-.95a60.965 60.965 0 0 1 2.193-.365c.329-.046 1.672-.073 1.827-.484.292-.768-6.039-2.43-6.733-2.577-1.426-.292-2.796-.338-4.239-.374-.777-.019-1.563-.064-2.348-.064-.649 0-1.298.027-1.937.118Zm5.591-5.126c-.904.082-1.599.256-2.448.567-.786.283-1.526.456-2.22.931-.667.466-1.206 1.015-1.818 1.526.667.265 1.534.128 2.238.11.849-.019 1.708-.046 2.549.1 1.571.265 3.161.366 4.732.649 1.38.247 2.75.64 4.057 1.142 1.297.493 2.357 1.252 3.535 1.937 1.197.694 2.439.11 3.609-.256.667-.21 1.37-.274 2.037-.484.329-.1.841-.165 1.124-.357.246-.164.301-.091.137-.456-.21-.485-.932-1.042-1.343-1.37-.457-.366-.959-.677-1.416-1.033-.512-.393-1.124-.557-1.681-.877-.503-.292-.969-.603-1.508-.822a20.162 20.162 0 0 0-4.111-1.197c-1.489-.265-2.932-.274-4.44-.274 0-.046 0-.082-.009-.128-1.005.091-2.01.192-3.015.292m13.284-1.59c-.704.092-1.416.165-2.12.256-.484.064-1.27.055-.493.466 1.115.594 2.302 1.115 3.462 1.599.521.22 1.051.375 1.508.694.493.348.987.704 1.462 1.07.959.748 1.827 1.635 2.887 2.238.612.347 1.078.575 1.79.603.631.027 1.27-.01 1.9-.01v-.018c.841 0 1.7.064 2.54 0 .21-.018.731-.046.896-.237.201-.229.054-.338-.147-.594-.895-1.142-1.58-2.302-2.777-3.18-.466-.347-.886-.758-1.407-1.032-.548-.283-1.124-.511-1.672-.804-1.169-.612-2.457-.895-3.764-1.069a13.817 13.817 0 0 0-1.918-.128c-.713 0-1.416.055-2.156.146"/></mask><g mask="url(#c)"><path fill="url(#d)" d="m495.981 25.717-82.81 14.602 14.175 80.389 82.809-14.602-14.174-80.389Z"/></g><mask id="e" width="724" height="240" x="0" y="0" maskUnits="userSpaceOnUse" style="mask-type:luminance"><path fill="#fff" d="M723.9 0H.1v240h723.8V0Z"/></mask><g mask="url(#e)"><path fill="#145000" d="M583.929 162.235h-36.644v30.468h36.644v-30.468Z"/><path fill="#FFC800" d="M621.624 207.129c-1.928-2.302-4.395-3.81-7.099-4.358a10.411 10.411 0 0 0 1.763-4.348c.713-4.55-1.818-7.857-2.658-8.954a15.142 15.142 0 0 0-4.294-3.809c-2.421-1.416-5.025-2.138-7.747-2.138-2.403 0-4.787.566-7.09 1.69-1.854-2.12-4.257-3.81-7.144-4.997a22.441 22.441 0 0 0-8.588-1.718c-3.27 0-6.641.722-9.994 2.147-3.956 1.672-7.565 3.901-10.899 6.724 0-.429-.01-.859-.037-1.288-.402-6.066-3.892-11.118-9.072-13.567.101-.1.201-.192.292-.292 1.837-1.791 7.337-8.213.814-15.677a16.089 16.089 0 0 0-4.833-3.719 14.882 14.882 0 0 0-6.734-1.608c-2.612 0-5.225.686-7.756 2.029-2.668 1.416-5.025 3.316-7.418 5.993a139.351 139.351 0 0 0-14.755 19.733 19.217 19.217 0 0 0-.301-1.27c-1.919-7.126-6.843-12.032-13.868-13.795a22.288 22.288 0 0 0-5.427-.676c-3.746 0-7.391.914-11.146 2.805a42.68 42.68 0 0 0-9.447 6.45c-.822-2.01-2.174-3.874-4.056-5.473a23.29 23.29 0 0 0-6.194-3.764c-1.791-.731-3.554-1.288-5.107-1.772l-.11-.037c-.593-.191-1.187-.374-1.781-.575l-1.188-.384c-1.206-.384-2.567-.822-2.996-1.178-.128-.101-.247-.201-.384-.293 2.969-4.138 2.622-9.666-.978-13.466-2.832-2.997-6.166-4.732-9.912-5.162a25.792 25.792 0 0 0-2.896-.164c-4.477 0-8.789 1.151-13.165 3.517-5.756 3.115-10.817 7.528-15.915 13.887-2.192 2.731-4.193 5.7-6.075 9.008-4.668.931-8.259 4.01-10.095 8.67a12.119 12.119 0 0 0-.777 3.197c-.246-2.037-1.041-4.02-2.402-5.81-2.367-3.116-5.902-4.925-9.721-4.988 1.197-3.262.722-6.971-1.508-10.004-2.685-3.664-7.071-5.847-11.73-5.847-1.718 0-3.408.292-5.025.868-4.979 1.781-7.93 5.408-8.898 6.596a49.638 49.638 0 0 0-3.6 5.043 17.382 17.382 0 0 0-1.489-3.362c-2.128-3.7-5.399-6.222-9.3-7.263.055-.064.109-.137.173-.201 2.769-3.234 3.874-8.615.092-13.33-2.768-3.453-6.788-5.362-11.31-5.362-.512 0-1.042.027-1.563.073-3.608.329-6.961 1.9-9.949 4.668-2.987 2.759-4.951 5.856-6.468 8.524a175.722 175.722 0 0 0-6.331 12.123c-.32-.283-.603-.493-.795-.648a14.554 14.554 0 0 0-4.531-2.376 15.256 15.256 0 0 0-4.587-.712c-3.572 0-7.007 1.279-9.939 3.709-.475.393-.941.813-1.389 1.242-2.686-1.626-5.81-2.485-9.163-2.485-1.042 0-2.111.083-3.161.256a25.185 25.185 0 0 0-6.057 1.754 10.731 10.731 0 0 0-2.997-3.937c.201-1.133.21-2.293.027-3.454-.466-2.914-2.092-5.381-4.814-7.327-2.558-1.827-5.409-2.759-8.46-2.759-2.549 0-5.061.667-7.482 1.983-3.527 1.918-6.322 4.878-8.314 8.779-.283.549-.548 1.088-.813 1.627-.265-.028-.512-.046-.749-.064a15.23 15.23 0 0 0-1.27-.055c-3.517 0-6.569 1.434-8.597 4.02-1.462 1.873-2.969 5.079-1.827 9.729.676 2.723 2.092 5.043 4.074 6.761-.265.713-1.516 4.029-1.754 4.668a24.205 24.205 0 0 0-3.234-4.741c-3.17-3.654-7.656-5.719-12.626-5.829h-.493c-1.407 0-2.777.128-4.129.375.054-.247.1-.494.128-.749.42-3.107-.622-6.131-2.924-8.515-1.352-1.398-5.472-5.655-11.95-5.655-2.631 0-5.235.694-7.975 2.11-1.051.548-1.882 1.142-2.494 1.581a23.007 23.007 0 0 0-4.221 3.91c-2.284-1.498-5.007-2.311-7.83-2.311a14.95 14.95 0 0 0-8.085 2.393c-1.736 1.124-3.38 2.604-4.888 4.413-2.731 3.289-4.284 6.852-5.445 9.903-4.796 12.662-9.428 26.439-10.89 41.422-.338 3.472.147 6.971 1.444 10.388 1.745 4.604 5.308 7.893 10.296 9.519a16.65 16.65 0 0 0 5.198.832c3.134 0 6.194-.877 9.09-2.613a16.935 16.935 0 0 0 5.601-5.436c2.138 1.617 4.659 2.458 7.363 2.458 1.581 0 3.189-.302 4.788-.887 3.672-1.352 6.002-3.764 7.473-5.993 2.284 1.033 4.769 1.553 7.382 1.553 2.612 0 5.244-.557 7.792-1.653a27.645 27.645 0 0 0 5.646-3.262 115.33 115.33 0 0 0 5.117-4.084c1.178.238 2.366.366 3.553.366 2.869 0 5.655-.694 8.314-2.065 2.695 1.864 5.929 2.869 9.373 2.869 1.033 0 2.093-.091 3.161-.265 5.473-.895 10.342-3.189 14.453-6.815.11-.092.22-.192.329-.284 2.878 1.955 6.304 2.997 10.004 2.997.512 0 1.033-.018 1.553-.055 5.582-.42 10.516-2.138 14.718-5.125a15.044 15.044 0 0 0 5.774 1.854c.841.092 1.718.137 2.613.137 1.48 0 3.015-.127 4.577-.383 3.992-.658 7.692-2.165 11.429-4.669a17.226 17.226 0 0 0 9.273 2.732c4.358 0 8.533-1.654 11.749-4.668.237-.229.548-.512.895-.868 1.38 1.096 2.96 2 4.723 2.676a17.426 17.426 0 0 0 6.231 1.152c2.147 0 4.257-.375 6.395-1.124 2.567-.895 4.87-2.056 6.998-3.289 2.138 1.617 4.696 2.686 7.501 3.106 1.05.155 2.138.238 3.216.238 3.471 0 6.468-.823 8.423-1.435 3.435-1.087 6.706-2.804 10.013-5.271a53.783 53.783 0 0 0 2.403-1.91c.064.238.118.466.191.695 1.27 4.065 3.838 7.464 7.638 10.086 2.978 2.055 6.249 3.097 9.721 3.097 2.293 0 4.595-.466 6.861-1.398 3.033-1.242 5.701-3.152 8.149-5.865.448-.493.877-.996 1.288-1.498 2.75 5.134 7.601 8.56 13.96 9.519.877.137 1.754.201 2.622.201 4.412 0 8.487-1.8 11.465-5.061.165-.174.32-.356.466-.53 1.654 2.037 3.801 3.709 6.368 4.86a19.273 19.273 0 0 0 7.966 1.727c1.17 0 2.367-.11 3.554-.32 3.216-.584 6.158-1.626 8.762-3.088 3.024 3.134 7.089 5.098 11.721 5.573.85.092 1.69.128 2.503.128 2.421 0 4.724-.393 6.843-1.178 2.311-.85 4.431-1.681 6.432-2.513 2.877 1.471 5.902 2.22 9.008 2.22.913 0 1.836-.064 2.759-.201 3.188 4.157 8.313 6.743 13.841 6.743 3.38 0 6.578-.987 9.318-2.869 3.271 4.129 8.35 6.696 14.207 6.696.52 0 1.041-.018 1.571-.063 3.709-.311 6.952-1.334 9.73-2.403 2.192 2.96 5.207 5.162 8.807 6.395 3.124 1.069 6.267 1.617 9.337 1.617 2.539 0 5.024-.365 7.445-1.096 2.147 2.539 5.19 4.357 9.063 5.426 2.357.64 4.787.969 7.217.969 2.842 0 5.738-.448 8.597-1.316 7.273-2.22 13.814-6.221 20.584-12.598 4.842-4.568 5.216-11.621.895-16.774m-236.127-21.999s-.073-.009-.118-.018a12.587 12.587 0 0 0 1.178-4.011c.092.786.265 1.617.539 2.476a23.235 23.235 0 0 1-1.608 1.553"/><path fill="#145000" d="M380.034 175.811c-1.443-1.9-3.508-2.951-5.81-2.951-.42 0-.85.037-1.279.11-2.686.438-4.102 2.339-4.787 3.243-.302.402-.594.804-.896 1.206-.694.941-1.334 1.809-2.01 2.64-1.772 2.156-3.955 4.587-6.733 6.222a9.15 9.15 0 0 1-.776.402c.411-1.864 1.178-3.81 2.393-6.103l.274-.521c2.403-4.531 4.669-8.807 7.958-12.242 1.909-2 2.064-4.769.383-7.062-1.717-2.339-4.54-3.736-7.555-3.736a9.765 9.765 0 0 0-3.28.566c-3.243 1.16-5.335 3.399-6.623 4.988a44.466 44.466 0 0 0-5.838 9.355c-2.138 4.587-4.276 8.122-6.724 11.101-1.279 1.562-2.869 2.996-4.394 4.339.465-2.055 1.105-4.175 1.726-6.221.411-1.371.841-2.723 1.27-4.075l.037-.128c.484-1.535.986-3.106 1.452-4.659.868-2.896.475-5.902-1.133-8.707-1.927-3.362-5.125-5.207-8.998-5.207-.457 0-.932.027-1.398.082a27.012 27.012 0 0 0-3.673.667c.11-.201.219-.411.329-.621 1.608-3.061 3.125-5.948 5.171-8.341 1.279-1.499 2.046-4.157-.009-6.724-1.791-2.239-4.303-3.417-7.272-3.417-.357 0-.722.018-1.088.055-2.485.228-4.741 1.315-6.906 3.316-2.476 2.284-4.166 4.97-5.491 7.29-5.29 9.246-9.355 18.181-12.452 27.317-1.562 4.595-4.65 8.688-9.721 12.881-.256.21-.521.402-.795.558.083-.494.183-.987.329-1.398 2.595-7.702 5.345-13.165 8.917-17.733.594-.758 1.836-2.348 1.562-4.568-.274-2.229-1.873-3.462-2.631-4.056a9.441 9.441 0 0 0-2.905-1.526 10.057 10.057 0 0 0-3.042-.475c-2.348 0-4.641.877-6.633 2.521-1.526 1.261-2.86 2.769-4.084 4.614-2.357-3.015-5.81-4.668-9.766-4.668-.768 0-1.562.064-2.348.192-4.02.639-7.665 2.439-11.128 5.508-5.033 4.45-8.843 9.785-11.31 15.86-1.096 2.695-2.649 5.299-4.75 7.949-1.225 1.544-2.677 3.298-4.349 4.467-.018.009-.037.027-.055.037.183-1.133.365-2.083.621-2.97a930.148 930.148 0 0 1 5.692-18.481c.484-1.526 1.124-3.024 1.9-4.806 1.27-.128 2.531-.274 3.755-.42 1.087-.128 2.156-.256 3.234-.366h.092c3.544-.356 4.65-2.676 4.997-4.038.639-2.512-.219-4.951-2.257-6.34-1.023-.704-2-1.169-2.969-1.425.082-.119.165-.238.256-.347.466-.631 1.69-2.312 1.325-4.55-.366-2.257-2.074-3.481-2.714-3.938-1.662-1.187-3.499-1.79-5.445-1.79-1.672 0-3.353.457-4.997 1.352-2.595 1.416-4.678 3.636-6.185 6.587a158.993 158.993 0 0 0-2.174 4.486c-.201.027-.412.063-.613.091l-.091.018c-.064.009-.128.028-.192.028-1.233-.055-2.503-.165-3.572-.256a8.134 8.134 0 0 0-.813-.037c-2.421 0-3.791 1.106-4.522 2.038-1.097 1.397-1.389 3.188-.868 5.298.685 2.796 2.585 4.806 5.344 5.665.037.009.064.018.092.027-.777 2.092-1.563 4.184-2.348 6.267l-.137.366c-1.142 3.042-2.449 6.495-3.691 9.894-.85 2.329-2.147 4.705-4.066 7.482-.685.996-1.397 1.763-2.165 2.33l.119-.512.027-.128c.475-2.028.969-4.129 1.243-6.331.621-5.052-.85-9.803-4.267-13.74-2.229-2.567-5.28-3.965-8.825-4.038h-.384c-4.522 0-8.752 1.708-12.58 5.07-5.061 4.458-8.999 10.232-11.703 17.148-.923 2.357-1.991 5.6-2.11 9.83-.092 1.654.42 4.075 1.379 6.551a6.809 6.809 0 0 0-2.037-.293h-.356c-.229 0-.448 0-.932-.52-2.248-2.44-3.865-5.436-5.144-8.076.302-.284.603-.567.914-.841 1.654-1.498 3.718-3.362 5.107-6.03l.594-1.142c.703-1.343 1.498-2.859 2.22-4.367.658-1.37 1.306-2.759 1.927-4.102 1.161-2.503 2.248-4.851 3.472-7.144 2.257-4.221 4.687-6.998 7.638-8.743 1.873-1.105 2.348-2.713 2.466-3.581.147-1.06 0-2.659-1.516-4.221-1.699-1.754-4.395-4.084-8.223-4.084-1.772 0-3.599.503-5.582 1.526-.721.375-1.324.804-1.799 1.151l-.064.046c-2.43 1.736-4.404 4.093-6.048 7.199-.411.776-.813 1.562-1.206 2.348.256-1.754-.42-3.545-1.964-4.87-1.581-1.361-3.664-2.119-5.847-2.119a9.747 9.747 0 0 0-5.281 1.562c-1.297.841-2.549 1.973-3.709 3.371-2.248 2.695-3.572 5.774-4.577 8.424-4.669 12.324-9.182 25.708-10.58 40.088-.264 2.677.119 5.381 1.133 8.049 1.188 3.133 3.563 5.298 7.053 6.431 1.179.384 2.394.576 3.6.576 2.183 0 4.348-.631 6.431-1.873 1.956-1.169 3.499-2.841 4.587-4.988.776-1.526.922-3.006.447-4.422-.484-1.416-1.525-2.503-3.106-3.243a7.723 7.723 0 0 0-.859-.338l-.082-.028c-.877-.393-.987-.74-1.023-1.398a8.347 8.347 0 0 1 0-.822v-.74c0-.164-.009-.319-.028-.484l.055-.621c.083-.95.165-1.91.256-2.86.384-.128.749-.265 1.096-.402.201.366.412.74.622 1.133l.064.11c.219.411.438.813.667 1.224.456.813.904 1.635 1.361 2.448 1.151 2.083 2.339 4.239 3.618 6.368.904 1.498 2.137 2.586 3.124 3.454l.137.118a7.004 7.004 0 0 0 4.687 1.782c.968 0 1.973-.192 2.987-.567 4.495-1.662 5.984-5.71 6.615-7.436.109-.302.319-.868.429-1.59 2.622 2.787 5.929 4.257 9.611 4.257 1.909 0 3.846-.411 5.737-1.233 1.672-.722 3.216-1.608 4.577-2.64a118.548 118.548 0 0 0 6.752-5.5s.018-.009.018-.018c.53.137.987.21 1.361.265l.11.018c.091.009.183.027.274.046a12.94 12.94 0 0 0 3.271.438c2.503 0 4.97-.767 7.308-2.293.53-.347 1.06-.694 1.608-1.069.174.229.357.448.539.649 2.129 2.293 4.979 3.508 8.232 3.508.749 0 1.535-.064 2.329-.192 4.495-.731 8.488-2.613 11.868-5.591a97.227 97.227 0 0 0 3.727-3.472c2.458 3.198 5.921 4.879 10.023 4.879.383 0 .776-.018 1.16-.046 5.682-.429 10.524-2.467 14.398-6.048.21-.201.42-.393.63-.594a9.759 9.759 0 0 0 6.423 3.39 18.55 18.55 0 0 0 2.037.109c1.197 0 2.449-.109 3.737-.319 4.175-.686 8.03-2.568 12.141-5.911.119-.101.238-.192.357-.293.402.521.831.969 1.306 1.362a12.093 12.093 0 0 0 7.738 2.832c3.042 0 5.957-1.16 8.213-3.271 1.097-1.023 3.143-2.933 2.833-5.756-.302-2.704-2.531-4.019-3.728-4.723-.868-.658-.941-1.114-.767-1.891.191-.886.493-1.809.895-2.732 1.617-3.69 3.992-7.171 7.053-10.323.283-.292.63-.64 1.005-.987-.338.987-.704 1.974-1.051 2.933-.539 1.48-1.096 3.006-1.589 4.559-.695 2.147-1.581 5.408-1.325 8.98.365 5.135 3.097 8.935 7.692 10.689a12.3 12.3 0 0 0 4.376.804c1.508 0 3.107-.283 4.687-.831 3.691-1.288 6.825-3.243 9.483-4.997 1.709 2.521 4.303 4.102 7.501 4.586.795.118 1.617.182 2.448.182 2.75 0 5.235-.685 6.861-1.196 2.869-.905 5.646-2.376 8.487-4.486 4.715-3.508 8.89-7.957 12.763-13.603 2.622-3.828 1.151-6.843.037-8.305m-113.121 7.062c-.1 1.142-.393 2.257-.913 3.463-1.261 2.932-2.805 4.97-4.861 6.413a5.753 5.753 0 0 1-1.873.877c.055-.493.192-1.041.402-1.672 1.252-3.7 3.052-6.468 5.518-8.469a6.133 6.133 0 0 1 1.691-.923c.018.101.027.211.045.32m-74.055 21.753c-.558.365-1.097.648-1.581.822.046-.594.192-1.27.457-2.092.183-.594.384-1.169.603-1.718.018.402.055.813.11 1.225.073.566.21 1.151.42 1.763m-29.674-27.618c-.137.283-.274.566-.402.84l-.018.046c-.393.832-.785 1.645-1.178 2.458-.238.484-.475.986-.704 1.471.667-1.663 1.416-3.298 2.312-4.815M617.659 210.455c-1.489-1.773-3.444-2.75-5.518-2.75-1.645 0-3.271.612-4.687 1.781-.639.521-1.261 1.06-1.891 1.599-.923.795-1.791 1.535-2.677 2.22-2.384 1.845-4.312 2.942-6.267 3.563-.475.155-1.069.329-1.635.411a4.16 4.16 0 0 1 .283-.612c1.306-2.266 2.476-4.029 3.682-5.536 2.786-3.49 5.573-6.816 9.108-9.255.959-.667 2.75-1.9 3.115-4.248.375-2.357-.995-4.139-1.653-4.998a9.798 9.798 0 0 0-2.814-2.494c-1.617-.95-3.344-1.425-5.125-1.425-1.636 0-3.289.411-4.915 1.215-1.316.649-2.577 1.48-3.847 2.522-1.205-3.353-3.773-5.92-7.436-7.437a17.273 17.273 0 0 0-6.615-1.325c-2.576 0-5.262.585-7.975 1.736-6.057 2.567-11.237 6.642-15.833 12.443-2.658 3.362-5.472 5.902-8.597 7.757a7.41 7.41 0 0 1-1.726.767c.292-.978.767-1.964 1.196-2.805a541.532 541.532 0 0 1 3.39-6.45 583.006 583.006 0 0 0 1.745-3.298c1.306-2.485 1.864-4.906 1.699-7.409-.347-5.226-3.846-9.191-8.907-10.113a23.223 23.223 0 0 0-4.111-.375c-.229 0-.466 0-.704.009.749-.959 1.498-1.909 2.257-2.85 1.388-1.727 2.996-3.353 4.248-4.577 1.178-1.151 4.321-4.212.53-8.561-.877-1.005-2.001-1.863-3.262-2.494a9.783 9.783 0 0 0-4.412-1.059c-1.755 0-3.554.484-5.336 1.425-2.11 1.123-4.011 2.667-5.984 4.878a133.987 133.987 0 0 0-17.477 24.594c-1.854 3.371-4.102 6.066-6.852 8.25-.749.594-1.717 1.151-2.951 1.699.43-.822.896-1.736 1.343-2.677 1.307-2.75 2.942-6.166 2.851-10.287 0-.182-.018-.383-.046-.575-.064-.384-.11-.768-.155-1.151v-.055c-.146-1.042-.293-2.229-.621-3.444-1.435-5.318-4.934-8.817-10.132-10.114a16.948 16.948 0 0 0-4.157-.521c-2.924 0-5.81.74-8.825 2.257-6.176 3.106-11.301 7.775-15.239 13.887-2.074 3.224-4.86 5.947-8.962 8.752a56.066 56.066 0 0 1 2.722-5.281c.685-1.188 1.499-2.348 2.357-3.581.466-.667.914-1.316 1.352-1.973 2.741-4.112 2.211-8.405-1.425-11.503a18.096 18.096 0 0 0-4.796-2.914c-1.59-.649-3.17-1.142-4.705-1.626l-.11-.037c-.621-.201-1.251-.392-1.873-.603-.374-.128-.758-.246-1.132-.365-1.873-.603-3.481-1.124-4.66-2.074-1.407-1.133-2.805-1.69-4.266-1.69a5.63 5.63 0 0 0-.877.073c1.105-2.138 2.22-3.837 3.49-5.326 1.9-2.22 1.809-5.153-.211-7.3-2-2.119-4.211-3.289-6.751-3.581a19.531 19.531 0 0 0-2.302-.137c-3.6 0-7.099.95-10.698 2.896-5.135 2.777-9.684 6.77-14.335 12.571-2.475 3.088-4.705 6.523-6.788 10.479-.858.082-1.662.237-2.302.374-2.046.402-4.787 1.691-6.294 5.491-1.334 3.371.365 6.121.922 7.026.037.064.083.128.119.182-1.434 1.846-2.85 3.371-4.312 4.641-1.425 1.252-2.43 1.389-3.061 1.389-.411 0-.849-.073-1.324-.21a7.031 7.031 0 0 0-1.992-.311c-1.425 0-2.732.539-3.682 1.517-1.589 1.635-1.525 3.736-1.507 4.431a12.41 12.41 0 0 0 .548 3.252c.914 2.933 2.814 5.409 5.637 7.364 2.101 1.452 4.376 2.183 6.779 2.183 1.617 0 3.261-.338 4.906-1.014 2.302-.941 4.348-2.43 6.267-4.54 2.722-3.015 4.705-6.313 6.66-9.703.566-.986 1.133-1.982 1.69-2.969-.237 1.243-.511 2.695-.511 2.695a4.443 4.443 0 0 0-.074.777c-.054 8.597 4.477 14.416 12.115 15.576.621.092 1.242.147 1.845.147 2.988 0 5.628-1.17 7.638-3.381.484-.53 1.964-2.147 1.799-4.485-.155-2.33-1.781-3.682-2.384-4.194a35.152 35.152 0 0 0-.895-.731l-.503-.42c-1.078-.886-1.462-1.754-1.324-2.987.201-1.873.493-3.509.877-4.989.201-.794.42-1.589.648-2.402a6.815 6.815 0 0 0 .695 3.681c1.014 2.029 3.014 3.454 5.353 3.81.393.064.786.091 1.179.091.274 0 .557-.018.831-.045a29.184 29.184 0 0 0-.384 1.663c-1.224 6.029 1.553 11.703 6.898 14.114a14.071 14.071 0 0 0 5.838 1.261c.868 0 1.754-.082 2.631-.237 2.942-.53 5.573-1.508 7.82-2.906a72.526 72.526 0 0 0 3.198-2.101c2.129 4.294 5.993 6.934 10.917 7.437.676.073 1.343.1 1.974.1 1.809 0 3.508-.292 5.061-.858 2.668-.987 5.07-1.928 7.327-2.897l.283-.118c.329-.137.676-.293.959-.402.32.182.713.42.95.557 2.467 1.489 5.062 2.247 7.72 2.247 1.563 0 3.152-.264 4.733-.785l.182-.064.384-.128c1.69 4.431 6.304 7.51 11.301 7.51 2.604 0 5.043-.85 7.062-2.458.859-.685 2.449-1.955 2.641-4.212.201-2.256-1.161-3.809-1.901-4.631l-.118-.138c-.521-.593-1.024-1.151-1.252-1.589-.165-.302-.466-.868.457-2.394 2.777-4.604 6.404-8.186 10.798-10.661-.255.475-.53.968-.822 1.471l-.566.986c-1.234 2.184-2.494 4.431-3.627 6.77-1.444 2.978-2.102 5.71-2.01 8.35.219 7.026 5.746 12.334 12.845 12.334.374 0 .767-.019 1.142-.046 3.609-.302 6.824-1.462 9.501-2.567a78.385 78.385 0 0 0 2.915-1.279c1.489 3.965 4.321 6.76 8.222 8.094 2.585.886 5.162 1.334 7.665 1.334 2.878 0 5.682-.594 8.35-1.754.411-.174.822-.375 1.27-.603.21.548.439 1.05.703 1.526 2.12 3.855 6.204 4.969 7.556 5.344 1.909.521 3.883.786 5.856.786 2.33 0 4.714-.366 7.089-1.097 6.478-1.973 12.37-5.6 18.537-11.41 2.878-2.705 3.07-6.596.484-9.684m-38.023-8.287v.01c-.092.84-.384 1.662-.914 2.512-1.507 2.439-3.371 4.129-5.691 5.171-.558.246-1.334.429-2.083.612l-.32.073-.366-.055h-.055c-.2-.045-.383-.073-.557-.1 1.891-4.166 4.806-6.871 8.88-8.259.156-.055.311-.082.466-.082.192 0 .393.036.631.118h.009Zm-98.01-6.504c-.347.082-.704.164-1.06.246h-.064l-.119.046-.109.027c-.064 0-.137 0-.201-.009.073-.32.182-.658.338-.986a17.09 17.09 0 0 1 1.516-2.723 10.35 10.35 0 0 0-.292 3.399m-48.594-21.442a9.789 9.789 0 0 0 1.389 2.338c-.64.978-1.325 1.965-1.983 2.933-.383.548-.758 1.106-1.142 1.663a6.548 6.548 0 0 1-.292.402l-.046.055c-.338.447-.749.995-1.114 1.671-.019.028-.028.055-.046.083a139.738 139.738 0 0 1 3.225-9.145"/><path fill="#fff" d="M146.932 216.978h-.083c.147-1.654.275-3.317.457-4.97.146-1.407.786-2.431 2.257-2.86 1.142-.329 2.22-.85 3.353-1.197 1.27-.393 1.681-.283 2.402.859.859 1.352 1.581 2.786 2.367 4.193 1.626 2.906 3.179 5.847 4.896 8.689.603.986 1.544 1.799 2.431 2.576.986.868 2.137.85 3.352.402 2.321-.859 3.308-2.786 4.084-4.897.475-1.297.256-1.653-1.123-1.608-1.755.046-3.098-.648-4.249-1.891-2.951-3.197-4.878-6.998-6.696-10.89-.366-.776-.201-1.37.383-1.918.786-.731 1.554-1.471 2.348-2.193 1.59-1.444 3.171-2.896 4.185-4.833.931-1.791 1.882-3.581 2.768-5.399 1.836-3.801 3.49-7.693 5.481-11.402 2.239-4.175 5.043-7.93 9.246-10.415.612-.365.438-.731.046-1.133-2.897-2.987-5.217-3.563-8.753-1.726-.475.246-.913.566-1.343.877-2.083 1.489-3.581 3.499-4.75 5.719-1.608 3.042-3.061 6.176-4.559 9.282-1.635 3.362-3.052 6.852-4.934 10.077-2.53 4.348-6.157 7.847-9.866 11.219-.375.338-.841.593-1.261.886.055-.512.018-1.06.174-1.544 1.708-5.509 3.362-11.018 5.18-16.49 1.516-4.568 3.051-9.145 5.81-13.174.439-.64.228-1.078-.292-1.526-1.517-1.307-4.011-1.489-6.021-.192-1.023.667-1.955 1.562-2.741 2.512-1.772 2.129-2.896 4.651-3.864 7.209-4.787 12.635-8.999 25.434-10.315 38.992-.201 2.101.119 4.138.877 6.112.786 2.073 2.367 3.225 4.377 3.882 2.302.749 4.476.311 6.504-.904 1.307-.777 2.284-1.91 2.97-3.253.475-.931.283-1.397-.667-1.845-.265-.128-.558-.201-.832-.32-2.211-.986-3.453-2.649-3.59-5.098-.028-.593 0-1.187 0-1.781M376.627 178.406c-.75-.978-1.745-1.407-2.979-1.206-.968.164-1.516.868-2.065 1.589-1.004 1.334-1.964 2.696-3.014 3.984-2.275 2.768-4.733 5.344-7.866 7.199-1.407.831-2.915 1.352-4.532 1.507-1.48.137-2.448-.484-2.777-1.918-.192-.841-.183-1.773-.046-2.631.475-2.97 1.617-5.72 3.015-8.351 2.567-4.833 5.089-9.702 8.917-13.722.53-.548.438-1.005.027-1.562-1.279-1.745-3.746-2.458-5.938-1.672-1.974.713-3.454 2.074-4.751 3.664a40.376 40.376 0 0 0-5.28 8.459c-1.992 4.276-4.303 8.369-7.291 12.014-1.462 1.782-3.188 3.353-4.924 4.879-1.17 1.032-2.659 1.58-4.239 1.754-1.919.21-2.86-.521-2.969-2.421-.064-1.179-.019-2.403.246-3.545.503-2.202 1.151-4.358 1.809-6.523.896-2.96 1.873-5.883 2.759-8.843.558-1.873.192-3.719-.749-5.345-1.352-2.348-3.535-3.298-6.203-3.006-4.769.53-8.908 2.476-12.434 5.719-.439.402-.868.823-1.307 1.215-.082.074-.21.092-.319.137-.028-.164-.101-.338-.055-.475.082-.283.219-.548.356-.813 1.69-3.343 3.326-6.715 5.098-10.013 2.056-3.818 3.901-7.774 6.751-11.1.402-.475.22-.858-.1-1.26-1.197-1.49-2.796-1.946-4.623-1.782-1.736.164-3.143 1.042-4.394 2.193-1.946 1.799-3.38 3.992-4.678 6.267-4.842 8.487-8.971 17.303-12.114 26.558-2.083 6.139-6.167 10.78-11.045 14.809-1.343 1.106-2.915 1.864-4.669 2.111-2.037.283-2.887-.329-3.243-2.348a6.347 6.347 0 0 1-.027-1.955c.164-1.115.319-2.257.685-3.317 2.293-6.788 5.143-13.302 9.602-19.002.977-1.243.95-1.608-.329-2.595a5.02 5.02 0 0 0-1.562-.822c-2.111-.658-4.011-.119-5.674 1.261-1.909 1.58-3.307 3.581-4.476 5.737-.768 1.407-1.48 2.85-2.23 4.266-.073.137-.246.311-.365.302-.119 0-.265-.201-.329-.338-.585-1.435-1.06-2.905-1.727-4.294-1.772-3.645-5.143-5.244-9.135-4.605-3.49.558-6.377 2.202-8.972 4.486-4.495 3.965-7.93 8.725-10.177 14.261-1.334 3.298-3.18 6.24-5.363 8.999-1.553 1.964-3.179 3.874-5.253 5.317-1.425.996-2.905 1.882-4.733 1.891-1.333 0-1.991-.502-2.201-1.827-.119-.758-.192-1.562-.083-2.311.274-1.818.512-3.664 1.033-5.409a940.048 940.048 0 0 1 5.71-18.573c.63-1.973 1.471-3.883 2.302-5.783.512-1.169 1.453-1.809 2.777-1.937 2.485-.237 4.961-.566 7.446-.822.621-.064 1.188-.073 1.38-.831.182-.704.063-1.343-.53-1.754-.53-.366-1.133-.713-1.754-.841-1.508-.32-3.043-.548-4.568-.749-1.088-.146-1.243-.265-.713-1.151 1.032-1.736 2.092-3.463 3.28-5.098.831-1.133.795-1.608-.42-2.476-1.901-1.352-3.938-1.233-5.902-.164-1.992 1.087-3.399 2.777-4.422 4.778a134.693 134.693 0 0 0-2.174 4.495c-.64 1.352-1.681 2.119-3.171 2.284-.529.054-1.059.201-1.589.182a80.137 80.137 0 0 1-3.91-.274c-1.581-.146-2.047.439-1.663 2.01.329 1.352 1.178 2.202 2.457 2.595 1.079.329 2.184.575 3.299.749.749.119.895.484.712 1.096-.31 1.087-.585 2.184-.977 3.243-2.111 5.683-4.276 11.347-6.359 17.039-1.115 3.042-2.732 5.801-4.568 8.451-1.06 1.525-2.32 2.877-3.919 3.864-1.791 1.115-3.737 1.517-5.82 1.096-1.142-.228-1.224-.292-1.096-1.388.11-.877.329-1.745.512-2.622.602-2.851 1.406-5.665 1.763-8.542.484-3.883-.658-7.419-3.253-10.406-1.489-1.718-3.435-2.522-5.682-2.567-3.901-.083-7.172 1.48-10.041 4.001-4.832 4.258-8.213 9.52-10.542 15.486-.996 2.558-1.736 5.18-1.828 8.459-.137 1.745 1.216 5.719 2.376 7.419 2.786 4.102 7.171 5.49 11.721 3.526a18.197 18.197 0 0 0 3.7-2.128 113.276 113.276 0 0 0 6.505-5.299c1.206-1.06 2.448-1.352 3.947-.941.566.155 1.178.173 1.754.319 2.594.695 4.961.11 7.153-1.306a87.26 87.26 0 0 0 4.687-3.262c.594-.438.822-.411 1.142.284.511 1.123.968 2.357 1.79 3.234 1.791 1.927 4.157 2.421 6.725 2.001 3.672-.603 6.925-2.12 9.72-4.578a98.773 98.773 0 0 0 3.782-3.535c1.069-1.042 2.083-2.129 3.116-3.207.475-.493.767-.402 1.032.201.311.713.658 1.398 1.014 2.083 1.8 3.417 4.678 5.043 8.478 4.76 4.449-.338 8.488-1.845 11.804-4.915 1.27-1.17 2.43-2.449 3.636-3.691.831-.85.868-.85 1.416.256.347.694.649 1.398 1.005 2.083.923 1.772 2.467 2.814 4.376 3.024 1.517.164 3.097.073 4.614-.174 3.864-.639 7.135-2.567 10.131-5.006 1.06-.859 2.047-1.818 3.034-2.769 1.406-1.352 1.379-1.361 2.019.402.246.667.502 1.343.858 1.956.32.557.722 1.105 1.215 1.516 3.052 2.549 7.373 2.439 10.278-.274 2.257-2.11 1.791-2.521-.192-3.691-.1-.064-.201-.128-.301-.201-2.101-1.58-2.997-3.672-2.439-6.258a19.417 19.417 0 0 1 1.16-3.545c1.9-4.348 4.595-8.185 7.902-11.584 1.499-1.544 3.107-2.987 5.153-3.764 2.686-1.014 4.358-.703 4.002 3.225-.101 1.169-.485 2.33-.868 3.444-.896 2.641-1.928 5.244-2.778 7.894-.767 2.375-1.306 4.823-1.132 7.363.237 3.317 1.781 5.783 4.951 6.989 2.01.768 4.084.64 6.121-.073 3.81-1.334 7.117-3.572 10.424-5.792.631-.429 1.279-.831 1.919-1.243.384.649.767 1.298 1.142 1.955.173.311.329.631.493.951 1.06 2.064 2.75 3.179 5.043 3.526 2.549.384 4.988-.11 7.382-.868 2.64-.831 5.006-2.192 7.217-3.837 4.687-3.49 8.497-7.793 11.786-12.589.913-1.334.941-2.266.164-3.289m-175.564 17.239c-3.573.649-4.788 3.636-4.386 6.642.11.804.466 1.59.777 2.357.329.804.32 1.526-.356 2.111-2.01 1.754-4.258 3.005-6.386 3.179-2.376 0-3.235-.676-3.591-2.421-.374-1.855-.055-3.654.503-5.436 1.242-3.983 3.17-7.546 6.258-10.415 1.434-1.334 3.079-2.202 5.116-2.183 1.48.018 2.503.703 3.015 2.073.265.713.447 1.48.52 2.239.165 1.535.092 1.562-1.48 1.845m68.867-7.619c-1.416 3.28-3.371 6.148-6.34 8.222a10.123 10.123 0 0 1-5.153 1.827c-2.047.156-3.115-.721-3.417-2.768-.238-1.626.064-3.197.576-4.732 1.379-4.075 3.508-7.693 6.879-10.424 1.023-.841 2.32-1.48 3.599-1.846 2.586-.731 4.267.384 4.906 2.969.128.512.165 1.051.229 1.444-.11 1.937-.576 3.654-1.279 5.299M614.37 213.204c-1.224-1.461-2.723-1.617-4.203-.402-1.562 1.279-3.06 2.65-4.659 3.892-2.311 1.791-4.778 3.362-7.592 4.258-1.708.539-3.444.913-5.262.447-1.782-.456-2.622-1.388-2.312-3.179.22-1.27.585-2.585 1.216-3.691 1.215-2.11 2.53-4.175 4.047-6.075 2.969-3.719 6.048-7.364 10.022-10.114 1.626-1.123 1.717-1.525.502-3.115a5.807 5.807 0 0 0-1.58-1.407c-1.955-1.151-3.974-1.06-5.975-.073-2.229 1.105-4.02 2.741-5.701 4.531-.776.823-1.544 1.654-2.33 2.467-.109.119-.292.174-.438.265-.082-.192-.219-.375-.247-.576-.228-1.653-.393-3.307-.658-4.951-.52-3.243-2.503-5.317-5.454-6.532-3.809-1.572-7.582-1.17-11.283.392-5.728 2.431-10.296 6.295-14.142 11.155-2.741 3.463-5.929 6.505-9.775 8.78-1.608.959-3.353 1.553-5.244 1.571-2.549.019-3.454-1.014-3.216-3.535.201-2.056 1.005-3.91 1.928-5.71 1.681-3.28 3.435-6.523 5.152-9.785.841-1.608 1.334-3.27 1.215-5.125-.21-3.225-2.192-5.6-5.399-6.185-4.842-.886-9.328.192-13.549 2.613-.566.329-1.114.694-1.671 1.023-.083.046-.211 0-.311 0 .018-.1 0-.228.055-.31.192-.302.383-.603.603-.887 3.234-4.193 6.431-8.414 9.729-12.552 1.407-1.764 2.988-3.39 4.605-4.97 1.233-1.197 1.389-1.416.292-2.677a6.643 6.643 0 0 0-1.955-1.489c-1.973-.987-3.919-.685-5.81.319-1.873.996-3.417 2.394-4.806 3.947a129.53 129.53 0 0 0-16.919 23.808c-2.047 3.709-4.641 6.925-7.94 9.538-1.279 1.023-2.795 1.809-4.312 2.449-2.183.922-4.321.328-6.377-.64-.758-.356-.877-.904-.639-1.608a6.66 6.66 0 0 1 .429-.977c.923-1.8 1.892-3.573 2.759-5.4 1.252-2.631 2.504-5.28 2.44-8.35-.22-1.398-.32-2.832-.685-4.193-.987-3.664-3.253-6.13-7.035-7.081-3.545-.895-6.852-.182-10.022 1.407-5.674 2.851-10.15 7.081-13.558 12.37-3.042 4.733-7.236 8.159-11.886 11.119-.74.475-1.608.813-2.457 1.032-1.827.457-3.262-.594-3.243-2.476.009-1.288.127-2.667.612-3.828.977-2.348 2.147-4.632 3.426-6.842 1.16-2.001 2.567-3.865 3.855-5.793 1.489-2.229 1.361-4.166-.64-5.865a13.83 13.83 0 0 0-3.636-2.211c-2.083-.849-4.275-1.452-6.413-2.165-2.476-.831-5.016-1.471-7.126-3.17-1.453-1.17-2.366-.959-3.262.722-1.224 2.284-1.58 4.997.996 7.281 1.325 1.178 1.352 1.279.384 2.805-1.297 2.064-2.704 4.047-4.075 6.066-.402.594-.886 1.133-1.215 1.754-.95 1.763.082 3.682 2.083 3.983 1.444.219 2.412-.438 3.106-1.608 1.426-2.402 2.814-4.823 4.23-7.235.576-.969 1.142-1.955 1.818-2.86.795-1.06 1.215-1.114 2.467-.575.274.118.539.246.786.411 1.124.712 1.178.968.493 2.11-1.014 1.681-2.055 3.344-3.042 5.034-2.101 3.618-3.846 7.382-4.687 11.511-.831 4.111.895 7.757 4.458 9.355 1.892.85 3.883 1.088 5.939.713 2.247-.411 4.403-1.133 6.331-2.33 2.321-1.443 4.541-3.051 6.797-4.586.758-.512.968-.466 1.243.393.283.904.456 1.855.785 2.741 1.38 3.691 4.047 5.764 7.985 6.166 1.736.174 3.472.092 5.107-.511a164.158 164.158 0 0 0 7.126-2.814c3.152-1.343 3.17-1.453 6.084.311 2.842 1.717 5.774 2.083 8.908 1.059 1.416-.466 2.823-.932 4.221-1.452.603-.22.886-.082.986.548.11.703.284 1.398.393 2.101.74 4.778 7.537 7.948 11.996 4.385 1.361-1.087 1.379-1.343.21-2.667-.704-.795-1.444-1.608-1.937-2.54-1.215-2.284-.676-4.55.566-6.614 3.353-5.573 7.876-9.968 13.723-12.91 1.242-.63 2.585-.877 3.983-.776 1.617.11 2.238.767 2.174 2.384-.018.412-.119.823-.201 1.225-.475 2.192-1.653 4.056-2.741 5.974-1.251 2.221-2.512 4.45-3.627 6.743-.959 1.982-1.662 4.138-1.589 6.349.155 5.007 4.358 8.57 9.355 8.149 2.887-.237 5.582-1.169 8.231-2.256 2.202-.905 4.331-1.964 6.505-2.942.859-.384.987-.329 1.206.594.155.639.219 1.288.366 1.928.776 3.435 2.731 6.002 6.075 7.144 4.294 1.471 8.652 1.562 12.9-.292 1.416-.622 2.75-1.417 4.111-2.129.365-.192.703-.466 1.096-.585.183-.055.558.11.658.283.137.238.064.585.146.868.448 1.462.704 3.043 1.425 4.358 1.024 1.864 2.933 2.723 4.934 3.271 3.545.968 7.089.785 10.57-.274 6.523-1.992 11.95-5.811 16.847-10.433 1.242-1.179 1.215-2.531.137-3.819m-120.923-24.905c-.292 1.453-.311 1.453-1.772 1.234-3.399-.503-6.14 2.329-5.756 5.956.055.53.164 1.06.21 1.59.119 1.389.046 1.672-1.315 2.129-1.563.529-3.207.831-4.806 1.233-.018-.064-.027-.128-.046-.192h-.356c-2.997-.11-4.212-1.48-3.837-4.467.11-.868.375-1.745.74-2.549 1.745-3.91 4.449-7.008 8.085-9.282 1.709-1.069 3.554-1.663 5.61-1.325 2.174.365 3.353 1.69 3.426 3.901a8.29 8.29 0 0 1-.156 1.772m90.446 14.316c-.165 1.562-.713 3.006-1.535 4.331-1.864 3.005-4.349 5.362-7.574 6.815-1.324.594-2.823.822-4.001 1.151-1.316-.247-2.33-.338-3.28-.63-1.599-.494-2.33-1.544-2.247-3.216.036-.822.137-1.699.475-2.43 2.32-5.107 6.038-8.743 11.41-10.58 1.279-.438 2.568-.402 3.856.037 2.119.713 3.133 2.302 2.896 4.513M438.522 152.049c-1.133-1.197-2.421-2.074-4.129-2.266-3.755-.429-7.208.512-10.47 2.275-5.216 2.823-9.355 6.897-13.037 11.484-2.686 3.353-4.924 6.998-6.879 10.817-.43.84-.905 1.242-1.9 1.206-.941-.037-1.892.155-2.823.338-1.608.319-2.558 1.388-3.143 2.868-.475 1.206-.018 2.22.585 3.198.612.986 1.37.192 2.064.128.329-.028.676.055 1.014.091-.109.274-.182.566-.347.813-2.238 3.38-4.677 6.587-7.756 9.282-2.467 2.156-5.18 3.015-8.414 2.074-1.307-.384-1.745 0-1.709 1.398.019.703.146 1.425.357 2.101.685 2.193 2.119 3.828 3.974 5.107 2.402 1.663 4.96 1.827 7.628.731 1.855-.758 3.371-1.983 4.705-3.453 2.449-2.714 4.312-5.82 6.121-8.972 1.48-2.576 2.915-5.18 4.385-7.756.348-.612.649-1.252 1.563-1.252 1.425 0 2.85-.109 4.275-.164 1.014-.037 1.197.1 1.033 1.105-.229 1.398-.612 2.777-.896 4.175-.52 2.613-1.005 5.235-1.26 6.569-.046 6.706 3.188 10.515 8.478 11.319 2.201.338 4.147-.201 5.673-1.882.978-1.069.932-1.589-.164-2.503-.457-.384-.923-.758-1.38-1.133-2.129-1.754-3.161-4.02-2.859-6.76.21-1.882.511-3.764.986-5.601 1.608-6.221 3.773-12.26 6.222-18.189 2.238-5.427 4.248-11 8.149-15.559.475-.557.42-1.05-.073-1.571m-13.823 7.089c-1.142 2.604-2.311 5.199-3.435 7.821-1.078 2.503-2.147 5.015-3.152 7.555-.858 2.156-.456 2.467-3.581 2.458-2.302 0-2.339-.019-1.352-2.065 2.832-5.865 6.377-11.246 10.972-15.896.037-.046.073-.101.128-.128.174-.073.356-.147.539-.21-.037.164-.055.328-.119.475"/></g></g><defs><linearGradient id="d" x1="468.587" x2="455.641" y1="112.119" y2="38.702" gradientUnits="userSpaceOnUse"><stop stop-color="#D20000"/><stop offset=".06" stop-color="#D20000"/><stop offset=".5" stop-color="#FFC800"/><stop offset=".93" stop-color="#145000"/><stop offset="1" stop-color="#145000"/></linearGradient><clipPath id="a"><path fill="#fff" d="M.1 0h723.8v240H.1z"/></clipPath></defs></svg>